<svg xmlns="http://www.w3.org/2000/svg" viewBox="0 0 225.22 84.36"><defs><style>.cls-1 {
  fill: none;
  stroke: #7f3f98;
  stroke-miterlimit: 10;
  stroke-width: 3px;
}

.cls-2 {
  fill: #7952a2;
}

.cls-3 {
  fill: #00a651;
}

.cls-4 {
  fill: #7f3f98;
}

</style></defs><g id="Layer_2" data-name="Layer 2"><g id="Layer_1-2" data-name="Layer 1"><polygon class="cls-1" points="1.69 9.33 34.77 1.54 67.69 8.81 60.93 62.69 34.77 82.47 9.99 63.33 1.69 9.33"></polygon><polygon class="cls-2" points="7.44 13.41 11.78 21.33 16.12 60.26 32.59 73.28 15.22 61.54 7.44 13.41"></polygon><path class="cls-3" d="M5.35,29.64c4.46,2.33,8.71,4.25,12,8.24s6.1,8.59,11.38,10.45a22.78,22.78,0,0,0,5.37,1c.64.05,3.77,0,3.38,1.22a1.47,1.47,0,0,1-.57.69c-2,1.53-4.57,2-7,2.36a19,19,0,0,0,4.22.9c2.45.25,4.27-.79,5.94-2.56a1.71,1.71,0,0,1,.58-.46,1.94,1.94,0,0,1,.76,0A6.79,6.79,0,0,0,43.51,51c1.38-.43,3.31-.71,4.5-1.46-1.49-.45-3-.82-4.5-1.23a39.25,39.25,0,0,0,7-4.84c.88-.82,1.69-1.71,2.49-2.61a79.7,79.7,0,0,0,5.21-6.24c1.51-2.08,2.87-4.35,4.93-5.87-.53.39-2.86.12-3.59.13a9.25,9.25,0,0,0-3.94.51,9.46,9.46,0,0,0-2.76,2.32,29.77,29.77,0,0,0-2.34,2.43,27.46,27.46,0,0,0-2.72,5.74,33.7,33.7,0,0,1-2.92,5.46c-1.91,2.89-4.3,3.48-7.69,3A4.87,4.87,0,0,1,35.8,48a5.88,5.88,0,0,1-1.56-1.26,64.68,64.68,0,0,1-5.58-5.65,30.26,30.26,0,0,1-2-3.37,15.84,15.84,0,0,0-2.91-3.21c-1.25-1.13-2.62-2.13-4-3.13a13.23,13.23,0,0,0-3.29-2c-1.76-.64-3.6-.24-5.42-.22-1,0-2,0-3,.08A19.16,19.16,0,0,1,5.35,29.64Z"></path><path class="cls-4" d="M90.76,29h11.51c4.25,0,6.35,2.94,6.35,5.88a5.68,5.68,0,0,1-4.31,5.6l6.41,8.12h-4.31l-5.85-7.87H94.18v7.87H90.76Zm3.42,8.76h7.47c2.27,0,3.42-1.43,3.42-2.88s-1.15-2.91-3.42-2.91H94.18Z"></path><path class="cls-4" d="M122.23,49.1c-5.09,0-11.06-3.39-11.06-10.33s6-10.33,11.06-10.33,11.09,3.38,11.09,10.33S127.36,49.1,122.23,49.1Zm0-17.44c-3.47,0-7.56,2.35-7.56,7.11s4.09,7.11,7.56,7.11,7.59-2.35,7.59-7.11S125.73,31.66,122.23,31.66Z"></path><path class="cls-4" d="M148,29c6.67.05,10,4.93,10,9.8s-3.33,9.74-10,9.8H137.1V29ZM140.52,45.6h7.3c4.37,0,6.56-3.42,6.56-6.83s-2.19-6.86-6.56-6.86h-7.3Z"></path><path class="cls-4" d="M179.16,45.63v2.94H161.68V29H179v2.94H165.1v5.37h12v2.94h-12v5.41Z"></path><path class="cls-4" d="M199.79,45.63v2.94H182.68V29h3.42V45.63Z"></path><path class="cls-4" d="M211.83,28.69h3.42l10,19.88h-3.64L220,45.38H207.13l-1.63,3.19h-3.61Zm-3.22,13.75h9.86l-4.93-9.69Z"></path></g></g></svg>