<svg width="1536" height="512" viewBox="0 0 1536 512" fill="none" xmlns="http://www.w3.org/2000/svg">
<g clip-path="url(#clip0_293_2156)">
<rect width="1536" height="512" fill="white"/>
<circle cx="347.843" cy="175.749" r="117.423" fill="url(#paint0_linear_293_2156)"/>
<path opacity="0.8" d="M1512.02 127.276C1512.02 -107.831 1299.19 -330.439 1042.73 -368.997C807.622 -368.997 617.031 -178.405 617.031 56.701C617.031 291.807 807.622 482.398 1042.73 482.398C1277.83 482.398 1512.02 362.382 1512.02 127.276Z" fill="url(#paint1_linear_293_2156)"/>
<circle cx="119.909" cy="388.134" r="68.9094" fill="url(#paint2_linear_293_2156)"/>
<circle cx="466.265" cy="435.317" r="51.9814" fill="url(#paint3_linear_293_2156)"/>
<circle cx="1344.57" cy="99.0039" r="53" fill="white"/>
<path d="M904.071 198.5C904.071 197.604 904.071 196.708 903.847 195.812L909 192.899C908.552 190.435 907.88 188.195 907.208 185.955H901.383C900.711 184.386 899.815 182.818 898.695 181.474L901.607 176.545C900.039 174.753 898.247 172.961 896.455 171.393L891.526 174.305C890.182 173.409 888.614 172.513 887.045 171.617V165.792C884.805 164.896 882.565 164.224 880.101 164L877.188 169.153C876.292 169.153 875.396 168.929 874.5 168.929C873.604 168.929 872.708 168.929 871.812 169.153L868.899 164C866.435 164.448 864.195 165.12 861.955 165.792V171.617C860.386 172.289 858.818 173.185 857.474 174.305L852.545 171.393C850.753 172.961 848.961 174.753 847.393 176.545L850.305 181.474C849.409 182.818 848.513 184.386 847.617 185.955H841.792C840.896 188.195 840.224 190.435 840 192.899L845.153 195.812C845.153 196.708 844.929 197.604 844.929 198.5C844.929 199.396 844.929 200.292 845.153 201.188L840 204.101C840.448 206.565 841.12 208.805 841.792 211.045H847.617C848.289 212.614 849.185 214.182 850.305 215.526L847.393 220.455C848.961 222.247 850.753 224.039 852.545 225.607L857.474 222.695C858.818 223.591 860.386 224.487 861.955 225.383V231.208C864.195 232.104 866.435 232.776 868.899 233L871.812 227.847C872.708 227.847 873.604 228.071 874.5 228.071C875.396 228.071 876.292 228.071 877.188 227.847L880.101 233C882.565 232.552 884.805 231.88 887.045 231.208V225.383C888.614 224.711 890.182 223.815 891.526 222.695L896.455 225.607C898.247 224.039 900.039 222.247 901.607 220.455L898.695 215.526C899.591 214.182 900.487 212.614 901.383 211.045H907.208C908.104 208.805 908.776 206.565 909 204.101L903.847 201.188C904.071 200.292 904.071 199.396 904.071 198.5ZM874.948 209.925C868.675 209.925 863.523 204.773 863.523 198.5C863.523 192.227 868.675 187.075 874.948 187.075C881.221 187.075 886.373 192.227 886.373 198.5C886.373 204.773 881.221 209.925 874.948 209.925Z" fill="#5C96F5"/>
<path d="M609.016 380.166C608.867 380.315 609.912 381.809 605.729 381.212C595.719 379.718 578.09 375.684 573.16 365.225C566.138 350.435 587.801 355.813 587.054 348.194C586.307 340.574 561.656 341.919 559.116 330.863C556.427 319.807 573.16 325.036 573.459 319.657C573.608 314.279 554.485 317.566 550.601 305.613C546.716 293.661 561.357 302.476 559.714 297.396C558.071 292.466 541.786 269.906 550.601 267.217C559.415 264.528 574.355 287.685 580.182 290.972C586.008 294.259 591.088 275.434 597.96 283.352C604.833 291.271 593.927 319.209 602.741 324.588C609.315 328.622 607.373 317.566 616.038 319.657C627.542 322.645 623.657 363.881 609.016 380.166Z" fill="#BBD5FF"/>
<path d="M577.941 319.657C581.975 319.956 584.813 320.853 586.606 321.45C583.02 316.221 580.481 313.532 580.481 313.532C580.182 313.233 580.182 312.785 580.481 312.486C580.779 312.187 581.228 312.187 581.526 312.486C581.526 312.486 587.502 318.612 593.927 330.564C597.064 311.44 589.146 294.707 588.996 294.558C588.847 294.259 588.996 293.96 589.295 293.811C589.594 293.661 589.893 293.811 590.042 294.109C590.192 294.259 598.707 312.038 594.823 332.207C595.869 334.15 596.915 336.241 597.96 338.482C600.948 345.056 604.086 353.423 606.476 363.433C608.12 360.295 612.004 352.078 612.452 340.574C612.452 340.275 612.751 339.976 613.05 339.976C613.349 339.976 613.647 340.275 613.647 340.574C613.199 353.871 608.12 362.984 606.924 364.927C610.211 378.971 612.153 396.152 610.659 416.471C610.659 416.919 610.211 417.218 609.912 417.218C609.912 417.218 609.912 417.218 609.763 417.218C609.464 417.218 609.165 416.77 609.165 416.471C610.958 389.578 607.074 368.064 601.397 351.63C600.052 349.986 595.869 345.803 589.445 344.757C589.146 344.757 588.996 344.458 588.996 344.16C588.996 343.861 589.295 343.711 589.594 343.711C594.674 344.458 598.259 347.148 600.5 349.09C596.466 337.735 591.686 329.07 587.801 323.243C586.606 322.645 583.17 321.301 577.941 320.853C577.642 320.853 577.343 320.554 577.493 320.255C577.343 319.956 577.642 319.657 577.941 319.657Z" fill="#5C96F5"/>
<path d="M622.013 385.993C630.38 386.142 644.722 378.373 650.25 370.754C655.927 363.134 639.941 367.766 641.585 361.789C643.228 355.813 662.949 360.146 666.684 351.63C670.27 342.965 656.077 344.907 656.674 340.574C657.272 336.092 672.062 336.988 676.694 327.875C681.475 318.761 668.477 323.841 670.419 319.956C672.511 316.221 688.795 300.086 681.923 296.799C675.05 293.512 659.812 310.096 654.732 312.038C649.652 313.831 648.457 302.327 641.734 307.855C635.011 313.383 640.091 337.437 632.173 340.574C626.346 342.965 628.886 331.909 622.163 334.747C610.51 339.678 618.577 385.843 622.013 385.993Z" fill="#5C96F5"/>
<g opacity="0.3">
<path opacity="0.3" d="M622.013 385.993C630.38 386.142 644.722 378.373 650.25 370.754C655.927 363.134 639.941 367.766 641.585 361.789C643.228 355.813 662.949 360.146 666.684 351.63C670.27 342.965 656.077 344.907 656.674 340.574C657.272 336.092 672.062 336.988 676.694 327.875C681.475 318.761 668.477 323.841 670.419 319.956C672.511 316.221 688.795 300.086 681.923 296.799C675.05 293.512 659.812 310.096 654.732 312.038C649.652 313.831 648.457 302.327 641.734 307.855C635.011 313.383 640.091 337.437 632.173 340.574C626.346 342.965 628.886 331.909 622.163 334.747C610.51 339.678 618.577 385.843 622.013 385.993Z" fill="#5C96F5"/>
</g>
<path d="M624.703 375.832C624.554 375.832 624.404 375.683 624.404 375.533C624.255 375.234 619.623 366.27 620.669 353.123C620.669 352.824 620.968 352.525 621.267 352.675C621.566 352.675 621.864 352.973 621.715 353.272C620.819 364.477 624.105 372.545 625.151 374.637C628.886 364.477 633.368 355.364 637.85 347.595C636.356 329.666 645.619 314.875 645.619 314.726C645.768 314.427 646.067 314.427 646.366 314.577C646.665 314.726 646.665 315.025 646.515 315.324C646.366 315.473 638 329.069 638.747 345.802C649.503 327.874 659.961 317.415 660.111 317.117C660.41 316.818 660.858 316.818 661.157 317.117C661.455 317.415 661.455 317.864 661.157 318.162C661.007 318.312 653.537 325.782 644.872 338.78C649.952 336.838 655.479 335.941 660.708 335.941C661.007 335.941 661.306 336.24 661.306 336.539C661.306 336.838 661.007 337.137 660.708 337.137C655.181 336.987 649.205 338.182 643.826 340.423C640.838 345.055 637.701 350.284 634.713 356.111C637.551 354.169 643.229 351.479 650.4 353.422C650.699 353.571 650.848 353.87 650.848 354.169C650.699 354.467 650.4 354.617 650.101 354.617C640.988 352.226 634.563 357.605 633.518 358.651C625.45 375.085 618.428 396.002 617.532 420.056C617.532 420.504 617.233 420.803 616.785 420.803C616.337 420.803 616.038 420.504 616.038 420.056C616.635 403.771 620.072 388.98 624.703 375.832Z" fill="#BBD5FF"/>
<path d="M598.409 467.716C590.341 452.626 585.112 430.963 585.112 421.401C585.112 413.333 588.847 406.162 594.823 401.082H635.759C641.735 406.162 645.47 413.333 645.47 421.401C645.47 430.963 640.241 452.626 632.173 467.716H598.409Z" fill="#5C96F5"/>
<path opacity="0.15" d="M741 496C926.015 496 1076 488.389 1076 479C1076 469.611 926.015 462 741 462C555.985 462 406 469.611 406 479C406 488.389 555.985 496 741 496Z" fill="#5C5A8E"/>
<g filter="url(#filter0_f_293_2156)">
<path d="M806.294 44.6641H770.438C768.047 44.6641 765.956 46.4569 765.508 48.698L765.209 49.8932C764.014 55.5705 758.785 59.9032 753.107 59.9032H719.044C713.367 59.9032 708.885 55.5705 708.586 49.8932V48.698C708.437 46.3075 706.644 44.6641 704.254 44.6641H668.398C656.446 44.6641 645.838 54.3753 644.942 66.3276L616.108 395.762C615.062 407.715 623.876 417.426 635.828 417.426H773.725C785.677 417.426 796.284 407.715 797.33 395.762L826.164 66.3276C827.06 54.3753 818.246 44.6641 806.294 44.6641Z" fill="url(#paint4_linear_293_2156)"/>
</g>
<path d="M806.294 44.6641H770.438C768.047 44.6641 765.956 46.4569 765.508 48.698L765.209 49.8932C764.014 55.5705 758.785 59.9032 753.107 59.9032H719.044C713.367 59.9032 708.885 55.5705 708.586 49.8932V48.698C708.437 46.3075 706.644 44.6641 704.254 44.6641H668.398C656.446 44.6641 645.838 54.3753 644.942 66.3276L616.108 395.762C615.062 407.715 623.876 417.426 635.828 417.426H773.725C785.677 417.426 796.284 407.715 797.33 395.762L826.164 66.3276C827.06 54.3753 818.246 44.6641 806.294 44.6641Z" fill="url(#paint5_linear_293_2156)"/>
<path opacity="0.4" d="M792.25 196.159H719.044C716.355 196.159 714.413 194.067 714.712 191.378L720.239 128.33C720.538 125.64 722.779 123.549 725.468 123.549H798.674C801.364 123.549 803.306 125.64 803.007 128.33L797.479 191.378C797.18 194.067 794.939 196.159 792.25 196.159Z" fill="white"/>
<path d="M767.898 393.223H645.39C638.816 393.223 633.886 387.844 634.484 381.271C635.081 374.697 640.908 369.318 647.481 369.318H769.99C776.563 369.318 781.493 374.697 780.896 381.271C780.298 387.994 774.472 393.223 767.898 393.223Z" fill="url(#paint6_linear_293_2156)"/>
<g opacity="0.4">
<path d="M777.609 106.217H665.26C661.525 106.217 658.836 103.229 659.135 99.4939L660.031 89.0356C660.33 85.3006 663.617 82.3125 667.352 82.3125H779.701C783.436 82.3125 786.125 85.3006 785.826 89.0356L784.93 99.4939C784.631 103.229 781.344 106.217 777.609 106.217Z" fill="#D7CCF0"/>
<path d="M800.467 88.7369C800.318 89.7828 799.421 90.5298 798.376 90.5298C797.33 90.5298 796.583 89.6334 796.732 88.7369C796.882 87.6911 797.778 86.9441 798.824 86.9441C799.87 86.7947 800.617 87.6911 800.467 88.7369Z" fill="#D7CCF0"/>
<path d="M800.019 94.2655C799.87 95.3113 798.973 96.0583 797.927 96.0583C796.882 96.0583 796.135 95.1619 796.284 94.2655C796.433 93.2197 797.33 92.4727 798.376 92.4727C799.421 92.4727 800.168 93.2197 800.019 94.2655Z" fill="#D7CCF0"/>
<path d="M799.571 99.7928C799.421 100.839 798.525 101.586 797.479 101.586C796.433 101.586 795.686 100.689 795.836 99.7928C795.985 98.747 796.882 98 797.927 98C798.824 98 799.571 98.8964 799.571 99.7928Z" fill="#D7CCF0"/>
</g>
<path opacity="0.4" d="M783.137 300.145H646.436C643.747 300.145 641.804 298.053 642.103 295.364L648.378 223.351C648.677 220.662 650.918 218.57 653.607 218.57H790.308C792.997 218.57 794.939 220.662 794.641 223.351L788.366 295.364C788.216 298.053 785.826 300.145 783.137 300.145Z" fill="#D7CCF0"/>
<g opacity="0.4">
<path d="M684.085 315.234H641.506C640.908 315.234 640.31 314.637 640.46 314.039C640.46 313.441 641.057 312.844 641.804 312.844H684.234C684.832 312.844 685.429 313.441 685.28 314.039C685.28 314.637 684.682 315.234 684.085 315.234Z" fill="#D7CCF0"/>
<path d="M737.271 315.234H691.555C690.957 315.234 690.359 314.637 690.509 314.039C690.509 313.441 691.106 312.844 691.853 312.844H737.57C738.167 312.844 738.765 313.441 738.616 314.039C738.466 314.637 737.869 315.234 737.271 315.234Z" fill="#D7CCF0"/>
<path d="M669.294 325.543H640.46C639.862 325.543 639.264 324.945 639.414 324.348C639.414 323.75 640.011 323.152 640.758 323.152H669.593C670.19 323.152 670.788 323.75 670.638 324.348C670.638 325.095 670.041 325.543 669.294 325.543Z" fill="#D7CCF0"/>
<path d="M723.974 325.543H676.764C676.166 325.543 675.569 324.945 675.718 324.348C675.718 323.75 676.316 323.152 677.063 323.152H724.273C724.871 323.152 725.468 323.75 725.319 324.348C725.319 325.095 724.721 325.543 723.974 325.543Z" fill="#D7CCF0"/>
<path d="M716.355 336.002H639.563C638.966 336.002 638.368 335.404 638.518 334.807C638.518 334.209 639.115 333.611 639.862 333.611H716.654C717.251 333.611 717.849 334.209 717.7 334.807C717.7 335.404 717.102 336.002 716.355 336.002Z" fill="#D7CCF0"/>
<path d="M729.054 336.002H723.974C723.377 336.002 722.779 335.404 722.929 334.807C722.929 334.209 723.526 333.611 724.273 333.611H729.353C729.95 333.611 730.548 334.209 730.399 334.807C730.249 335.404 729.652 336.002 729.054 336.002Z" fill="#D7CCF0"/>
<path d="M674.523 346.31H638.667C638.069 346.31 637.472 345.713 637.621 345.115C637.621 344.518 638.219 343.92 638.966 343.92H674.822C675.419 343.92 676.017 344.518 675.868 345.115C675.868 345.862 675.27 346.31 674.523 346.31Z" fill="#D7CCF0"/>
<path d="M726.664 346.31H681.993C681.395 346.31 680.798 345.713 680.947 345.115C680.947 344.518 681.545 343.92 682.292 343.92H726.962C727.56 343.92 728.158 344.518 728.008 345.115C728.008 345.862 727.411 346.31 726.664 346.31Z" fill="#D7CCF0"/>
<path d="M681.993 356.769H637.92C637.322 356.769 636.725 356.172 636.874 355.574C636.874 354.977 637.472 354.379 638.219 354.379H682.292C682.889 354.379 683.487 354.977 683.338 355.574C683.188 356.172 682.591 356.769 681.993 356.769Z" fill="#D7CCF0"/>
<path d="M725.02 356.769H689.463C688.865 356.769 688.268 356.172 688.417 355.574C688.417 354.977 689.015 354.379 689.762 354.379H725.319C725.917 354.379 726.514 354.977 726.365 355.574C726.215 356.172 725.618 356.769 725.02 356.769Z" fill="#D7CCF0"/>
</g>
<g opacity="0.4">
<path d="M790.457 190.182C789.86 190.779 788.963 190.929 788.366 190.331L727.261 131.914C726.664 131.317 726.664 130.42 727.261 129.823C727.859 129.225 728.755 129.076 729.353 129.673L790.457 188.09C791.204 188.688 791.055 189.584 790.457 190.182Z" fill="white"/>
<path d="M721.883 190.182C721.434 189.585 721.584 188.688 722.181 188.091L753.406 162.543C754.004 161.945 755.05 162.094 755.498 162.692C755.946 163.29 755.796 164.186 755.199 164.784L723.974 190.332C723.227 190.929 722.331 190.78 721.883 190.182Z" fill="white"/>
<path d="M762.071 157.313C761.623 156.715 761.773 155.819 762.37 155.221L793.595 129.673C794.192 129.076 795.238 129.225 795.686 129.823C796.135 130.42 795.985 131.317 795.388 131.914L764.163 157.462C763.565 157.911 762.669 157.911 762.071 157.313Z" fill="white"/>
<g opacity="0.7">
<path opacity="0.7" d="M790.457 190.182C789.86 190.779 788.963 190.929 788.366 190.331L727.261 131.914C726.664 131.317 726.664 130.42 727.261 129.823C727.859 129.225 728.755 129.076 729.353 129.673L790.457 188.09C791.204 188.688 791.055 189.584 790.457 190.182Z" fill="white"/>
</g>
<g opacity="0.7">
<path opacity="0.7" d="M721.883 190.182C721.434 189.585 721.584 188.688 722.181 188.091L753.406 162.543C754.004 161.945 755.05 162.094 755.498 162.692C755.946 163.29 755.796 164.186 755.199 164.784L723.974 190.332C723.227 190.929 722.331 190.78 721.883 190.182Z" fill="white"/>
</g>
<g opacity="0.7">
<path opacity="0.7" d="M762.071 157.313C761.623 156.715 761.773 155.819 762.37 155.221L793.595 129.673C794.192 129.076 795.238 129.225 795.686 129.823C796.135 130.42 795.985 131.317 795.388 131.914L764.163 157.462C763.565 157.911 762.669 157.911 762.071 157.313Z" fill="white"/>
</g>
</g>
<path d="M584.436 37.4922H559.259C554.223 37.4922 549.963 41.5593 549.963 46.7885V71.9659C549.963 77.0014 554.03 81.2622 559.259 81.2622H584.436C589.471 81.2622 593.732 77.1951 593.732 71.9659V46.7885C593.732 41.5593 589.665 37.4922 584.436 37.4922ZM572.041 46.4011C575.914 46.4011 577.851 49.4999 577.851 53.1797C577.851 57.0531 575.721 59.9582 572.041 59.9582C568.167 59.9582 566.231 56.8594 566.231 53.1797C566.231 49.4999 568.167 46.4011 572.041 46.4011ZM587.147 72.1596H556.935C556.741 72.1596 556.547 71.9659 556.354 71.9659L558.29 66.7367C559.452 63.2506 562.745 61.1202 566.424 61.1202H577.851C581.531 61.1202 584.823 63.4443 585.985 66.7367L587.922 71.9659C587.534 71.9659 587.341 72.1596 587.147 72.1596Z" fill="#8BEBE3"/>
<path d="M404.374 120H385.395C378.616 120 373 125.617 373 132.395V151.375C373 158.153 378.616 163.77 385.395 163.77H404.374C411.153 163.77 416.769 158.153 416.769 151.375V132.395C416.769 125.423 411.153 120 404.374 120ZM394.691 152.343C394.691 152.343 386.944 143.822 386.944 139.561C386.944 135.3 390.43 131.814 394.691 131.814C398.951 131.814 402.438 135.3 402.438 139.561C402.631 143.822 394.691 152.343 394.691 152.343Z" fill="#F84B00"/>
<path d="M404.374 120H385.395C378.616 120 373 125.617 373 132.395V151.375C373 158.153 378.616 163.77 385.395 163.77H404.374C411.153 163.77 416.769 158.153 416.769 151.375V132.395C416.769 125.423 411.153 120 404.374 120ZM394.691 152.343C394.691 152.343 386.944 143.822 386.944 139.561C386.944 135.3 390.43 131.814 394.691 131.814C398.951 131.814 402.438 135.3 402.438 139.561C402.631 143.822 394.691 152.343 394.691 152.343Z" fill="url(#paint7_linear_293_2156)" fill-opacity="0.2"/>
<path d="M394.691 135.879C392.754 135.879 391.205 137.428 391.205 139.365C391.205 141.302 392.754 142.851 394.691 142.851C396.627 142.851 398.177 141.302 398.177 139.365C398.37 137.428 396.821 135.879 394.691 135.879Z" fill="#F84B00"/>
<path d="M394.691 135.879C392.754 135.879 391.205 137.428 391.205 139.365C391.205 141.302 392.754 142.851 394.691 142.851C396.627 142.851 398.177 141.302 398.177 139.365C398.37 137.428 396.821 135.879 394.691 135.879Z" fill="url(#paint8_linear_293_2156)" fill-opacity="0.2"/>
<path d="M950.253 66.5491L962.933 58.2873L950.253 50.0254V66.5491Z" fill="#F84B00"/>
<path d="M950.253 66.5491L962.933 58.2873L950.253 50.0254V66.5491Z" fill="url(#paint9_linear_293_2156)" fill-opacity="0.2"/>
<path d="M966.584 36H942.375C936.611 36 932 40.6113 932 46.3754V70.5846C932 76.3487 936.611 80.96 942.375 80.96H966.584C972.348 80.96 976.959 76.3487 976.959 70.5846V46.1832C976.767 40.6113 972.156 36 966.584 36ZM954.479 74.4273C945.641 74.4273 938.34 67.3183 938.34 58.2879C938.34 49.4496 945.449 42.1484 954.479 42.1484C963.318 42.1484 970.619 49.2574 970.619 58.2879C970.619 67.1261 963.318 74.4273 954.479 74.4273Z" fill="#F84B00"/>
<path d="M966.584 36H942.375C936.611 36 932 40.6113 932 46.3754V70.5846C932 76.3487 936.611 80.96 942.375 80.96H966.584C972.348 80.96 976.959 76.3487 976.959 70.5846V46.1832C976.767 40.6113 972.156 36 966.584 36ZM954.479 74.4273C945.641 74.4273 938.34 67.3183 938.34 58.2879C938.34 49.4496 945.449 42.1484 954.479 42.1484C963.318 42.1484 970.619 49.2574 970.619 58.2879C970.619 67.1261 963.318 74.4273 954.479 74.4273Z" fill="url(#paint10_linear_293_2156)" fill-opacity="0.2"/>
<path d="M936.966 152.701C936.966 152.094 936.966 151.69 936.966 151.083L940 149.464C939.798 148.048 939.393 146.632 938.786 145.216H935.347C934.943 144.204 934.336 143.395 933.729 142.586L935.549 139.552C934.538 138.338 933.526 137.326 932.515 136.517L929.481 138.338C928.671 137.731 927.66 137.124 926.851 136.719V133.28C925.435 132.673 924.019 132.471 922.602 132.066L920.984 135.101C920.377 135.101 919.973 135.101 919.366 135.101C918.759 135.101 918.354 135.101 917.747 135.101L916.129 132.066C914.713 132.269 913.297 132.673 911.881 133.28V136.719C910.869 137.124 910.06 137.731 909.251 138.338L906.216 136.517C905.003 137.529 903.991 138.54 903.182 139.552L905.003 142.586C904.396 143.395 903.789 144.407 903.384 145.216H899.945C899.338 146.632 899.136 148.048 898.731 149.464L901.766 151.083C901.766 151.69 901.766 152.094 901.766 152.701C901.766 153.308 901.766 153.713 901.766 154.32L898.731 155.938C898.934 157.354 899.338 158.77 899.945 160.186H903.384C903.789 161.198 904.396 162.007 905.003 162.816L903.182 165.851C904.193 167.065 905.205 168.076 906.216 168.885L909.251 167.065C910.06 167.671 911.072 168.278 911.881 168.683V172.122C913.297 172.729 914.713 172.931 916.129 173.336L917.747 170.301C918.354 170.301 918.759 170.301 919.366 170.301C919.973 170.301 920.377 170.301 920.984 170.301L922.602 173.336C924.019 173.134 925.435 172.729 926.851 172.122V168.683C927.862 168.278 928.671 167.671 929.481 167.065L932.515 168.885C933.729 167.874 934.74 166.862 935.549 165.851L933.729 162.816C934.336 162.007 934.943 160.996 935.347 160.186H938.786C939.393 158.77 939.595 157.354 940 155.938L936.966 154.32C936.966 153.713 936.966 153.106 936.966 152.701ZM919.366 164.637C912.69 164.637 907.43 159.377 907.43 152.701C907.43 146.025 912.69 140.765 919.366 140.765C926.041 140.765 931.301 146.025 931.301 152.701C931.301 159.175 926.041 164.637 919.366 164.637Z" fill="#BBD5FF"/>
<path d="M822.07 86.0965V96.24L812.317 101.312C810.561 102.287 810.561 104.628 812.317 105.408L822.07 110.48V120.624C822.07 122.964 823.825 124.72 826.166 124.72H861.083C863.423 124.72 865.179 122.964 865.179 120.624V86.0965C865.179 83.7556 863.423 82 861.083 82H826.166C823.825 82 822.07 83.7556 822.07 86.0965Z" fill="url(#paint11_linear_293_2156)"/>
<path d="M822.07 86.0965V96.24L812.317 101.312C810.561 102.287 810.561 104.628 812.317 105.408L822.07 110.48V120.624C822.07 122.964 823.825 124.72 826.166 124.72H861.083C863.423 124.72 865.179 122.964 865.179 120.624V86.0965C865.179 83.7556 863.423 82 861.083 82H826.166C823.825 82 822.07 83.7556 822.07 86.0965Z" fill="url(#paint12_linear_293_2156)"/>
<path d="M822.07 86.0965V96.24L812.317 101.312C810.561 102.287 810.561 104.628 812.317 105.408L822.07 110.48V120.624C822.07 122.964 823.825 124.72 826.166 124.72H861.083C863.423 124.72 865.179 122.964 865.179 120.624V86.0965C865.179 83.7556 863.423 82 861.083 82H826.166C823.825 82 822.07 83.7556 822.07 86.0965Z" fill="url(#paint13_linear_293_2156)"/>
<path opacity="0.9" d="M833.969 96.8242C834.749 96.8242 853.085 96.8242 853.865 96.8242C855.231 96.8242 856.206 95.6538 856.206 94.4834C856.206 93.1179 855.036 92.1426 853.865 92.1426C852.89 92.1426 834.944 92.1426 833.969 92.1426C832.603 92.1426 831.628 93.313 831.628 94.4834C831.628 95.6538 832.603 96.8242 833.969 96.8242Z" fill="white"/>
<path opacity="0.9" d="M853.865 101.115C852.89 101.115 834.944 101.115 833.969 101.115C832.603 101.115 831.628 102.286 831.628 103.456C831.628 104.822 832.798 105.797 833.969 105.797C834.944 105.797 852.89 105.797 853.865 105.797C855.231 105.797 856.206 104.626 856.206 103.456C856.206 102.286 855.231 101.115 853.865 101.115Z" fill="white"/>
<path opacity="0.9" d="M853.865 110.283C852.89 110.283 835.139 110.283 833.969 110.283C832.603 110.283 831.628 111.454 831.628 112.624C831.628 113.989 832.798 114.965 833.969 114.965C834.749 114.965 853.085 114.965 853.865 114.965C855.231 114.965 856.206 113.794 856.206 112.624C856.206 111.454 855.231 110.283 853.865 110.283Z" fill="white"/>
<path d="M669.767 61.3018H677.767L681.86 69.1156C682.976 71.3481 686.325 71.3481 687.441 69.1156L691.534 61.3018H699.534C702.696 61.3018 705.301 58.6971 705.301 55.5344V25.7674C705.301 22.6046 702.696 20 699.534 20H669.767C666.605 20 664 22.6046 664 25.7674V55.5344C664 58.6971 666.605 61.3018 669.767 61.3018Z" fill="url(#paint14_linear_293_2156)"/>
<path opacity="0.9" d="M684.65 28.9316L675.534 34.3269V49.9546H682.232V39.5362H686.883V49.9546H693.766V34.3269L684.65 28.9316Z" fill="white"/>
<path d="M779.988 395.83H772.932L768.289 387.102C767.361 385.245 764.575 385.245 763.647 387.102L759.004 395.83H751.948C748.42 395.83 745.449 398.801 745.449 402.329V430.37C745.449 433.898 748.42 436.869 751.948 436.869H779.988C783.516 436.869 786.487 433.898 786.487 430.37V402.329C786.487 398.801 783.516 395.83 779.988 395.83Z" fill="url(#paint15_linear_293_2156)"/>
<path d="M779.988 395.83H772.932L768.289 387.102C767.361 385.245 764.575 385.245 763.647 387.102L759.004 395.83H751.948C748.42 395.83 745.449 398.801 745.449 402.329V430.37C745.449 433.898 748.42 436.869 751.948 436.869H779.988C783.516 436.869 786.487 433.898 786.487 430.37V402.329C786.487 398.801 783.516 395.83 779.988 395.83Z" fill="url(#paint16_linear_293_2156)"/>
<path d="M779.988 395.83H772.932L768.289 387.102C767.361 385.245 764.575 385.245 763.647 387.102L759.004 395.83H751.948C748.42 395.83 745.449 398.801 745.449 402.329V430.37C745.449 433.898 748.42 436.869 751.948 436.869H779.988C783.516 436.869 786.487 433.898 786.487 430.37V402.329C786.487 398.801 783.516 395.83 779.988 395.83Z" fill="url(#paint17_linear_293_2156)"/>
<path opacity="0.9" d="M769.961 406.601C766.061 402.701 759.562 402.701 755.662 406.601C751.762 410.5 751.762 417 755.662 420.899C759.19 424.428 764.575 424.799 768.661 422.014C768.661 422.385 769.032 422.942 769.218 423.313L775.531 429.627C776.46 430.556 777.945 430.556 778.688 429.627C779.617 428.699 779.617 427.213 778.688 426.47L772.375 420.157C772.003 419.785 771.632 419.599 771.075 419.599C773.86 415.514 773.489 410.129 769.961 406.601ZM767.732 418.857C764.947 421.642 760.49 421.642 757.705 418.857C754.919 416.071 754.919 411.614 757.705 408.829C760.49 406.043 764.947 406.043 767.732 408.829C770.518 411.614 770.518 416.071 767.732 418.857Z" fill="white"/>
<path d="M1044.52 260.702C1044.52 260.702 1032.27 290.881 1020.46 294.168C1008.51 297.455 990.585 294.766 990.585 294.766L985.057 296.26L979.679 295.513H979.529L973.404 295.363C972.358 295.363 971.76 294.318 972.358 293.571L974.599 290.583C974.748 290.284 975.047 290.134 975.346 290.134L981.173 288.192C981.471 288.192 981.621 288.043 981.92 288.192L990.884 289.537C990.884 289.537 1015.83 285.503 1018.22 283.112C1020.76 280.871 1028.23 256.668 1028.23 256.668L1044.52 260.702Z" fill="url(#paint18_linear_293_2156)"/>
<g opacity="0.2">
<path d="M991.182 289.238C990.884 289.238 990.585 289.388 990.585 289.388L981.621 288.043C981.322 288.043 981.173 288.043 980.874 288.043L975.047 289.985C974.748 290.135 974.45 290.284 974.3 290.433L972.059 293.421C971.462 294.168 972.059 295.214 973.105 295.214L979.23 295.364H979.38L983.115 295.961C985.953 294.766 988.643 292.376 991.182 289.238Z" fill="#F84B00"/>
<path d="M991.182 289.238C990.884 289.238 990.585 289.388 990.585 289.388L981.621 288.043C981.322 288.043 981.173 288.043 980.874 288.043L975.047 289.985C974.748 290.135 974.45 290.284 974.3 290.433L972.059 293.421C971.462 294.168 972.059 295.214 973.105 295.214L979.23 295.364H979.38L983.115 295.961C985.953 294.766 988.643 292.376 991.182 289.238Z" fill="url(#paint19_linear_293_2156)" fill-opacity="0.2"/>
</g>
<path d="M1051.84 230.821C1043.02 227.983 1030.47 234.556 1025.84 262.345L1044.22 267.724C1044.22 267.724 1064.54 234.855 1051.84 230.821Z" fill="#407BFF"/>
<path d="M1018.67 214.387L1021.66 232.465L1036.75 229.029L1031.52 210.652L1018.67 214.387Z" fill="url(#paint20_linear_293_2156)"/>
<g opacity="0.3">
<path d="M1018.97 216.18L1020.17 223.352C1020.02 216.778 1023.6 213.641 1023.6 213.641C1020.02 214.089 1018.97 216.18 1018.97 216.18Z" fill="#F84B00"/>
<path d="M1018.97 216.18L1020.17 223.352C1020.02 216.778 1023.6 213.641 1023.6 213.641C1020.02 214.089 1018.97 216.18 1018.97 216.18Z" fill="url(#paint21_linear_293_2156)" fill-opacity="0.2"/>
</g>
<path d="M1035.55 187.791C1036.3 199.893 1036.75 205.122 1031.37 211.995C1022.86 219.465 1008.21 220.511 1003.88 208.857C999.997 198.399 999.549 180.321 1010.75 174.046C1018.82 169.564 1028.83 172.403 1033.31 180.471C1034.66 182.712 1035.4 185.252 1035.55 187.791Z" fill="url(#paint22_linear_293_2156)"/>
<path d="M1007.77 188.839C1008.51 180.92 1004 187 999 182C991 170.5 992.911 166.502 999 162C1007.81 157.502 1019.57 167.624 1028.68 169.267C1037.8 170.91 1040.78 176.999 1040.78 176.999C1040.78 176.999 1042.58 182.116 1040.78 193.47C1038.99 204.676 1031.82 213.192 1031.82 213.192C1031.82 213.192 1028.38 209.606 1022.86 212.893C1022.86 212.893 1020.17 211.399 1017.48 207.514C1015.09 203.779 1014.19 200.343 1010.9 200.044C1004.03 199.447 1007.62 191.379 1007.77 188.839Z" fill="#F84B00"/>
<path d="M1007.77 188.839C1008.51 180.92 1004 187 999 182C991 170.5 992.911 166.502 999 162C1007.81 157.502 1019.57 167.624 1028.68 169.267C1037.8 170.91 1040.78 176.999 1040.78 176.999C1040.78 176.999 1042.58 182.116 1040.78 193.47C1038.99 204.676 1031.82 213.192 1031.82 213.192C1031.82 213.192 1028.38 209.606 1022.86 212.893C1022.86 212.893 1020.17 211.399 1017.48 207.514C1015.09 203.779 1014.19 200.343 1010.9 200.044C1004.03 199.447 1007.62 191.379 1007.77 188.839Z" fill="url(#paint23_linear_293_2156)" fill-opacity="0.2"/>
<path d="M1010.01 193.322C1008.36 195.115 1007.47 197.654 1007.62 200.045C1007.77 203.332 1011.05 203.929 1013.59 202.137C1015.83 200.493 1018.52 196.907 1017.03 193.919C1015.53 191.081 1011.95 191.081 1010.01 193.322Z" fill="url(#paint24_linear_293_2156)"/>
<path d="M913.494 262.645H909.162V287.894H913.494V262.645Z" fill="#BBD5FF"/>
<path d="M883.913 212.295H873.306C869.272 212.295 865.985 215.582 865.985 219.616V269.068C865.985 273.102 869.272 276.389 873.306 276.389H883.913V212.295Z" fill="url(#paint25_linear_293_2156)"/>
<path d="M949.35 276.389H877.041C873.007 276.389 869.72 273.102 869.72 269.068V219.616C869.72 215.582 873.007 212.295 877.041 212.295H949.35C953.384 212.295 956.671 215.582 956.671 219.616V269.068C956.521 273.102 953.235 276.389 949.35 276.389Z" fill="#03004F"/>
<path d="M877.041 215.283C874.65 215.283 872.708 217.225 872.708 219.616V269.068C872.708 271.459 874.65 273.401 877.041 273.401H949.35C951.741 273.401 953.683 271.459 953.683 269.068V219.616C953.683 217.225 951.741 215.283 949.35 215.283H877.041Z" fill="url(#paint26_linear_293_2156)"/>
<path d="M895.716 298.501C895.716 289.835 902.738 282.963 911.253 282.963C919.919 282.963 926.791 289.985 926.791 298.501H895.716Z" fill="#5C96F5"/>
<path opacity="0.8" d="M943.897 293H901V298L987 298.209V295.941L943.897 293Z" fill="#5C96F5"/>
<path d="M932.468 298.201H901.393V293.121L932.468 296.109V298.201Z" fill="#5C96F5"/>
<path opacity="0.6" d="M932.468 298.201H901.393V293.121L932.468 296.109V298.201Z" fill="#03004F"/>
<path d="M1001.34 472.555H936.95C931.572 472.555 927.239 468.223 927.239 462.844V314.785C927.239 309.407 931.572 305.074 936.95 305.074H1001.34C1002.84 305.074 1004.03 306.269 1004.03 307.763C1004.03 309.258 1002.84 310.453 1001.34 310.453H936.95C934.41 310.453 932.468 312.544 932.468 314.935V462.994C932.468 465.534 934.56 467.476 936.95 467.476H1001.34C1002.84 467.476 1004.03 468.671 1004.03 470.165C1004.03 471.36 1002.84 472.555 1001.34 472.555Z" fill="#5C96F5"/>
<path d="M936.651 298.201H845.219V305.821H936.651V298.201Z" fill="url(#paint27_linear_293_2156)"/>
<path d="M1010.46 298.201H932.468V305.821H1010.46V298.201Z" fill="url(#paint28_linear_293_2156)"/>
<path d="M983.115 418.322L987.447 461.948H977.139L966.83 419.368L983.115 418.322Z" fill="url(#paint29_linear_293_2156)"/>
<path d="M976.093 459.111L989.24 459.41C989.688 459.41 990.137 459.709 990.286 460.306L992.527 471.063C992.676 471.96 992.079 473.005 991.182 473.155C991.033 473.155 990.884 473.155 990.884 473.155C986.103 473.005 981.92 472.707 975.944 472.557C968.922 472.408 970.715 473.304 962.498 473.304C957.567 473.304 956.671 467.627 958.912 467.328C968.474 466.282 969.519 463.444 973.404 460.007C974.151 459.41 975.197 458.962 976.093 459.111Z" fill="#F84B00"/>
<path d="M976.093 459.111L989.24 459.41C989.688 459.41 990.137 459.709 990.286 460.306L992.527 471.063C992.676 471.96 992.079 473.005 991.182 473.155C991.033 473.155 990.884 473.155 990.884 473.155C986.103 473.005 981.92 472.707 975.944 472.557C968.922 472.408 970.715 473.304 962.498 473.304C957.567 473.304 956.671 467.627 958.912 467.328C968.474 466.282 969.519 463.444 973.404 460.007C974.151 459.41 975.197 458.962 976.093 459.111Z" fill="url(#paint30_linear_293_2156)" fill-opacity="0.2"/>
<g opacity="0.2">
<path d="M986.402 450.593L983.115 418.322L966.83 419.368L974.3 450.593H986.402Z" fill="#F84B00"/>
<path d="M986.402 450.593L983.115 418.322L966.83 419.368L974.3 450.593H986.402Z" fill="url(#paint31_linear_293_2156)" fill-opacity="0.2"/>
</g>
<path d="M1053.93 317.625L1011.5 319.119C1011.5 319.119 954.43 339.139 952.787 354.528C951.143 370.364 970.266 442.975 970.266 442.975H987.298C987.298 442.975 982.667 389.638 980.724 373.353C978.932 357.068 1040.19 362.446 1050.79 348.552C1060.8 335.703 1053.93 317.625 1053.93 317.625Z" fill="url(#paint32_linear_293_2156)"/>
<path d="M990.435 440.434L990.734 446.559H969.669L967.577 440.434H990.435Z" fill="#03004F"/>
<path d="M943.673 420.416L944.868 461.95H934.709L928.733 420.416H943.673Z" fill="url(#paint33_linear_293_2156)"/>
<path d="M933.215 459.111L946.362 459.41C946.811 459.41 947.259 459.709 947.408 460.306L949.649 471.063C949.798 471.96 949.201 473.006 948.305 473.155C948.155 473.155 948.006 473.155 948.006 473.155C943.225 473.006 939.042 472.707 933.066 472.557C926.044 472.408 927.837 473.304 919.62 473.304C914.69 473.304 913.793 467.627 916.034 467.328C925.596 466.282 926.642 463.444 930.526 460.007C931.273 459.41 932.169 458.962 933.215 459.111Z" fill="#F84B00"/>
<path d="M933.215 459.111L946.362 459.41C946.811 459.41 947.259 459.709 947.408 460.306L949.649 471.063C949.798 471.96 949.201 473.006 948.305 473.155C948.155 473.155 948.006 473.155 948.006 473.155C943.225 473.006 939.042 472.707 933.066 472.557C926.044 472.408 927.837 473.304 919.62 473.304C914.69 473.304 913.793 467.627 916.034 467.328C925.596 466.282 926.642 463.444 930.526 460.007C931.273 459.41 932.169 458.962 933.215 459.111Z" fill="url(#paint34_linear_293_2156)" fill-opacity="0.2"/>
<g opacity="0.2">
<path d="M944.57 450.445L943.823 420.266H928.733L933.066 450.445C936.353 450.595 940.835 450.595 944.57 450.445Z" fill="#F84B00"/>
<path d="M944.57 450.445L943.823 420.266H928.733L933.066 450.445C936.353 450.595 940.835 450.595 944.57 450.445Z" fill="url(#paint35_linear_293_2156)" fill-opacity="0.2"/>
</g>
<path d="M1035.55 321.211C1035.55 321.211 1039.14 353.482 1006.27 354.976C973.404 356.47 947.856 360.205 947.109 371.859C946.362 383.512 947.109 442.975 947.109 442.975H929.331C929.331 442.975 922.458 405.325 919.62 382.018C916.931 359.309 912.15 343.024 935.456 335.255C960.107 327.037 1004.03 319.567 1004.03 319.567L1035.7 317.625L1035.55 321.211Z" fill="url(#paint36_linear_293_2156)"/>
<path d="M949.799 440.434L948.603 446.559H929.032L926.94 440.434H949.799Z" fill="#03004F"/>
<path d="M1042.58 228.729C1042.58 228.729 1042.58 221.408 1027.93 222.305C1012.4 223.201 1015.24 230.223 1015.24 230.223L1042.58 228.729Z" fill="url(#paint37_linear_293_2156)"/>
<path d="M1042.58 228.729C1042.58 228.729 1042.58 221.408 1027.93 222.305C1012.4 223.201 1015.24 230.223 1015.24 230.223L1042.58 228.729Z" fill="url(#paint38_linear_293_2156)"/>
<path d="M1042.58 228.729C1042.58 228.729 1042.58 221.408 1027.93 222.305C1012.4 223.201 1015.24 230.223 1015.24 230.223L1042.58 228.729Z" fill="url(#paint39_linear_293_2156)"/>
<path d="M1056.32 261.15C1055.28 275.493 1055.72 318.67 1055.72 318.67C1055.72 318.67 1024.35 320.762 999.698 319.866L996.86 236.797C996.86 233.809 998.652 231.12 1001.49 230.074C1008.51 227.385 1024.8 224.247 1050.34 227.684C1059.16 228.879 1057.37 244.268 1056.32 261.15Z" fill="url(#paint40_linear_293_2156)"/>
<path d="M1056.32 261.15C1055.28 275.493 1055.72 318.67 1055.72 318.67C1055.72 318.67 1024.35 320.762 999.698 319.866L996.86 236.797C996.86 233.809 998.652 231.12 1001.49 230.074C1008.51 227.385 1024.8 224.247 1050.34 227.684C1059.16 228.879 1057.37 244.268 1056.32 261.15Z" fill="url(#paint41_linear_293_2156)"/>
<path d="M1056.32 261.15C1055.28 275.493 1055.72 318.67 1055.72 318.67C1055.72 318.67 1024.35 320.762 999.698 319.866L996.86 236.797C996.86 233.809 998.652 231.12 1001.49 230.074C1008.51 227.385 1024.8 224.247 1050.34 227.684C1059.16 228.879 1057.37 244.268 1056.32 261.15Z" fill="url(#paint42_linear_293_2156)"/>
<path d="M1001.79 260.702C1001.79 260.702 989.539 290.881 977.736 294.168C965.784 297.455 947.856 294.766 947.856 294.766L942.328 296.26L936.95 295.513H936.801L930.675 295.363C929.63 295.363 929.032 294.318 929.629 293.571L931.87 290.583C932.02 290.284 932.319 290.134 932.617 290.134L938.444 288.192C938.743 288.192 938.892 288.043 939.191 288.192L948.155 289.537C948.155 289.537 973.105 285.503 975.495 283.112C978.035 280.871 985.505 256.668 985.505 256.668L1001.79 260.702Z" fill="url(#paint43_linear_293_2156)"/>
<path opacity="0.1" d="M1001.49 246.657C1001.49 246.657 999.549 248.898 997.308 252.185L998.204 276.239C1007.32 272.205 1011.05 248.599 1011.05 248.599L1005.08 244.416L1001.49 246.657Z" fill="black"/>
<path d="M1009.11 230.821C1000.3 227.983 987.746 234.556 983.115 262.345L1001.49 267.724C1001.49 267.724 1021.81 234.855 1009.11 230.821Z" fill="url(#paint44_linear_293_2156)"/>
<path d="M1009.11 230.821C1000.3 227.983 987.746 234.556 983.115 262.345L1001.49 267.724C1001.49 267.724 1021.81 234.855 1009.11 230.821Z" fill="url(#paint45_linear_293_2156)"/>
<path d="M1009.11 230.821C1000.3 227.983 987.746 234.556 983.115 262.345L1001.49 267.724C1001.49 267.724 1021.81 234.855 1009.11 230.821Z" fill="url(#paint46_linear_293_2156)"/>
<path opacity="0.6" d="M1020.91 370.514H1007.02V411.002H1020.91V370.514Z" fill="#5C5A8E"/>
<path d="M1023 447.755V396.211H1004.93V447.755L963.693 453.432V459.11L1013.89 454.926L1064.24 459.11V453.432L1023 447.755Z" fill="#5C5A8E"/>
<path d="M963.095 473.153C966.066 473.153 968.474 470.745 968.474 467.775C968.474 464.805 966.066 462.396 963.095 462.396C960.125 462.396 957.717 464.805 957.717 467.775C957.717 470.745 960.125 473.153 963.095 473.153Z" fill="#5C5A8E"/>
<path d="M1064.24 473.153C1067.21 473.153 1069.62 470.745 1069.62 467.775C1069.62 464.805 1067.21 462.396 1064.24 462.396C1061.27 462.396 1058.86 464.805 1058.86 467.775C1058.86 470.745 1061.27 473.153 1064.24 473.153Z" fill="#5C5A8E"/>
<path d="M1013.89 473.153C1016.86 473.153 1019.27 470.745 1019.27 467.775C1019.27 464.805 1016.86 462.396 1013.89 462.396C1010.92 462.396 1008.51 464.805 1008.51 467.775C1008.51 470.745 1010.92 473.153 1013.89 473.153Z" fill="#5C5A8E"/>
<path opacity="0.3" d="M1020.91 370.514H1007.02V380.524H1020.91V370.514Z" fill="#03004F"/>
<path d="M1068.57 278.779H1023.6C1016.28 278.779 1010.16 284.307 1009.41 291.628L1005.67 332.266C1004.78 341.529 997.308 348.7 988.045 349.298L944.57 351.539C939.341 351.838 935.157 356.17 935.157 361.399V362.296C935.157 366.778 938.892 370.513 943.374 370.513H1002.09H1014.04H1075.74L1082.91 294.168C1083.51 285.951 1076.94 278.779 1068.57 278.779Z" fill="#407BFF"/>
<path d="M968.474 360.055H968.175C966.531 360.055 965.187 358.71 965.187 357.067V324.646H971.312V357.067C971.462 358.71 970.117 360.055 968.474 360.055Z" fill="#9161D3"/>
<path d="M1068.57 278.779H1023.6C1016.28 278.779 1010.16 284.307 1009.41 291.628L1005.67 332.266C1004.78 341.529 997.308 348.7 988.045 349.298L944.57 351.539C939.341 351.838 935.157 356.17 935.157 361.399V362.296C935.157 366.778 938.892 370.513 943.374 370.513H1002.09H1014.04H1075.74L1082.91 294.168C1083.51 285.951 1076.94 278.779 1068.57 278.779Z" fill="url(#paint47_linear_293_2156)"/>
<path d="M995.067 315.234H981.322V326.738H995.216C998.354 326.738 1000.89 324.199 1000.89 321.061C1000.89 317.924 998.204 315.234 995.067 315.234Z" fill="url(#paint48_linear_293_2156)"/>
<path opacity="0.5" d="M995.067 315.234H981.322V326.738H995.216C998.354 326.738 1000.89 324.199 1000.89 321.061C1000.89 317.924 998.204 315.234 995.067 315.234Z" fill="url(#paint49_linear_293_2156)"/>
<path d="M989.539 326.738H941.283C938.295 326.738 935.755 324.199 935.755 321.211V320.762C935.755 317.774 938.295 315.234 941.283 315.234H989.539C992.527 315.234 995.067 317.774 995.067 320.762V321.211C995.067 324.199 992.676 326.738 989.539 326.738Z" fill="url(#paint50_linear_293_2156)"/>
<path d="M1078.73 370.513H1012.55L1019.87 291.628C1020.61 284.307 1026.74 278.779 1034.06 278.779H1079.03C1087.4 278.779 1093.97 285.951 1093.22 294.317L1086.8 363.192C1086.35 367.376 1082.91 370.513 1078.73 370.513Z" fill="#9161D3"/>
<path d="M924.102 472.555H859.71C854.332 472.555 849.999 468.223 849.999 462.844V314.785C849.999 309.407 854.332 305.074 859.71 305.074H924.102C925.596 305.074 926.791 306.269 926.791 307.763C926.791 309.258 925.596 310.453 924.102 310.453H859.71C857.171 310.453 855.228 312.544 855.228 314.935V462.994C855.228 465.534 857.32 467.476 859.71 467.476H924.102C925.596 467.476 926.791 468.671 926.791 470.165C926.642 471.36 925.446 472.555 924.102 472.555Z" fill="#5C96F5"/>
<g opacity="0.5">
<path d="M881.523 227.085L877.041 224.097C876.593 223.798 876.593 223.051 877.041 222.752L881.523 219.764C881.822 219.466 882.27 219.615 882.569 219.914C882.867 220.213 882.718 220.661 882.419 220.96L878.684 223.35L882.419 225.741C882.718 226.039 882.867 226.488 882.569 226.786C882.27 227.235 881.822 227.384 881.523 227.085Z" fill="white"/>
</g>
<g opacity="0.5">
<path d="M891.383 226.937C891.084 226.638 891.234 226.19 891.532 225.891L895.268 223.501L891.532 221.11C891.234 220.811 891.084 220.363 891.383 220.064C891.682 219.765 892.13 219.616 892.429 219.915L896.911 222.903C897.359 223.202 897.359 223.949 896.911 224.248L892.429 227.236C892.13 227.385 891.682 227.236 891.383 226.937Z" fill="white"/>
</g>
<g opacity="0.5">
<path d="M885.258 228.877C884.81 228.728 884.66 228.28 884.81 227.981L887.947 218.27C888.096 217.822 888.545 217.672 888.843 217.822C889.292 217.971 889.441 218.419 889.292 218.718L886.154 228.429C886.154 228.728 885.706 229.027 885.258 228.877Z" fill="white"/>
</g>
<g opacity="0.5">
<path d="M910.656 236.349H877.34C876.891 236.349 876.593 236.051 876.593 235.602C876.593 235.154 876.891 234.855 877.34 234.855H910.656C911.104 234.855 911.403 235.154 911.403 235.602C911.403 236.051 911.104 236.349 910.656 236.349Z" fill="white"/>
<path d="M948.902 236.349H915.586C915.138 236.349 914.839 236.051 914.839 235.602C914.839 235.154 915.138 234.855 915.586 234.855H948.902C949.35 234.855 949.649 235.154 949.649 235.602C949.649 236.051 949.35 236.349 948.902 236.349Z" fill="white"/>
<path d="M896.463 243.223H877.489C877.041 243.223 876.742 242.924 876.742 242.476C876.742 242.027 877.041 241.729 877.489 241.729H896.463C896.911 241.729 897.21 242.027 897.21 242.476C897.21 242.924 896.762 243.223 896.463 243.223Z" fill="white"/>
<path d="M932.468 243.223H901.393C900.945 243.223 900.646 242.924 900.646 242.476C900.646 242.027 900.945 241.729 901.393 241.729H932.468C932.916 241.729 933.215 242.027 933.215 242.476C933.215 242.924 932.916 243.223 932.468 243.223Z" fill="white"/>
<path d="M928.136 250.094H877.489C877.041 250.094 876.742 249.795 876.742 249.347C876.742 248.898 877.041 248.6 877.489 248.6H928.136C928.584 248.6 928.883 248.898 928.883 249.347C928.883 249.795 928.434 250.094 928.136 250.094Z" fill="white"/>
<path d="M943.673 250.094H933.066C932.618 250.094 932.319 249.795 932.319 249.347C932.319 248.898 932.618 248.6 933.066 248.6H943.673C944.121 248.6 944.42 248.898 944.42 249.347C944.42 249.795 943.972 250.094 943.673 250.094Z" fill="white"/>
<path d="M901.094 256.967H877.489C877.041 256.967 876.742 256.668 876.742 256.22C876.742 255.771 877.041 255.473 877.489 255.473H901.094C901.542 255.473 901.841 255.771 901.841 256.22C901.841 256.668 901.542 256.967 901.094 256.967Z" fill="white"/>
<path d="M935.456 256.967H906.024C905.576 256.967 905.277 256.668 905.277 256.22C905.277 255.771 905.576 255.473 906.024 255.473H935.456C935.904 255.473 936.203 255.771 936.203 256.22C936.203 256.668 935.904 256.967 935.456 256.967Z" fill="white"/>
<path d="M910.656 263.84H877.34C876.891 263.84 876.593 263.541 876.593 263.093C876.593 262.645 876.891 262.346 877.34 262.346H910.656C911.104 262.346 911.403 262.645 911.403 263.093C911.403 263.392 911.104 263.84 910.656 263.84Z" fill="white"/>
<path d="M939.042 263.84H915.586C915.138 263.84 914.839 263.541 914.839 263.093C914.839 262.645 915.138 262.346 915.586 262.346H939.042C939.49 262.346 939.789 262.645 939.789 263.093C939.789 263.392 939.49 263.84 939.042 263.84Z" fill="white"/>
</g>
<path d="M519.654 128.467C519.355 139.373 518.907 144.005 523.837 150.131C531.158 159.244 544.454 157.302 548.04 146.694C551.177 137.132 551.327 120.847 541.168 115.469C531.008 110.09 519.953 117.411 519.654 128.467Z" fill="url(#paint51_linear_293_2156)"/>
<path d="M530.411 175.53C530.411 175.53 540.57 183 544.604 185.988L573.886 172.243C573.737 168.956 575.828 165.819 578.816 164.623L580.908 163.727L585.39 161.785C587.033 161.038 588.975 161.187 590.469 162.382C592.262 163.727 593.009 165.819 592.412 167.91C591.216 172.243 587.78 175.53 583.448 176.576L579.115 177.622C579.115 177.622 554.016 196.745 545.052 197.193C536.088 197.642 522.941 188.827 522.941 188.827L530.411 175.53Z" fill="url(#paint52_linear_293_2156)"/>
<path d="M506.059 162.98C513.827 162.98 522.343 167.761 535.939 176.576C535.939 176.576 533.399 186.287 525.481 193.16C525.481 193.16 518.011 191.218 508.15 181.805C496.198 170.451 501.427 162.98 506.059 162.98Z" fill="#263238"/>
<path d="M652.77 180.391H579.564C576.874 180.391 574.932 178.3 575.231 175.61L580.759 112.562C581.058 109.873 583.299 107.781 585.988 107.781H659.194C661.883 107.781 663.825 109.873 663.526 112.562L657.999 175.61C657.849 178.15 655.459 180.391 652.77 180.391Z" fill="#6136C4"/>
<path d="M653.068 177.404C654.114 177.404 655.011 176.656 655.011 175.611L660.538 112.562C660.688 111.517 659.941 110.77 658.895 110.77H585.689C584.643 110.77 583.747 111.517 583.747 112.562L578.219 175.611C578.07 176.656 578.817 177.404 579.862 177.404H653.068Z" fill="url(#paint53_linear_293_2156)"/>
<path d="M653.068 177.404C654.114 177.404 655.011 176.656 655.011 175.611L660.538 112.562C660.688 111.517 659.941 110.77 658.895 110.77H585.689C584.643 110.77 583.747 111.517 583.747 112.562L578.219 175.611C578.07 176.656 578.817 177.404 579.862 177.404H653.068Z" fill="url(#paint54_linear_293_2156)"/>
<path d="M653.068 177.404C654.114 177.404 655.011 176.656 655.011 175.611L660.538 112.562C660.688 111.517 659.941 110.77 658.895 110.77H585.689C584.643 110.77 583.747 111.517 583.747 112.562L578.219 175.611C578.07 176.656 578.817 177.404 579.862 177.404H653.068Z" fill="url(#paint55_linear_293_2156)"/>
<path d="M602.272 140.352L578.368 175.013V175.611C578.219 176.657 578.966 177.404 580.012 177.404H621.545L602.272 140.352Z" fill="url(#paint56_linear_293_2156)"/>
<path d="M655.309 173.071L635.29 134.973L605.559 177.254H653.068C654.114 177.254 655.011 176.507 655.011 175.461L655.309 173.071Z" fill="url(#paint57_linear_293_2156)"/>
<path d="M627.521 128.399C627.222 132.134 623.935 135.122 620.2 135.122C616.465 135.122 613.776 132.134 614.075 128.399C614.374 124.664 617.661 121.676 621.396 121.676C625.131 121.676 627.82 124.664 627.521 128.399Z" fill="url(#paint58_linear_293_2156)"/>
<path d="M444.805 439.676L437.335 461.787L448.839 466.419L457.653 446.1L444.805 439.676Z" fill="url(#paint59_linear_293_2156)"/>
<path d="M452.872 465.822C452.723 465.822 452.723 465.673 452.723 465.523C452.723 465.374 452.872 465.225 453.022 465.225C453.321 465.225 458.699 464.029 460.641 465.225C461.089 465.523 461.239 465.822 461.388 466.27C461.537 466.719 461.388 467.316 460.94 467.615C460.193 468.213 458.4 467.914 456.757 467.466C455.412 467.017 454.068 466.569 452.872 465.822ZM453.918 465.822C456.308 466.868 459.595 467.914 460.492 467.167C460.641 467.017 460.79 466.868 460.641 466.42C460.641 466.121 460.342 465.972 460.193 465.822C460.043 465.673 459.894 465.673 459.595 465.523C457.802 465.225 455.86 465.374 453.918 465.822Z" fill="#F84B00"/>
<path d="M452.872 465.822C452.723 465.822 452.723 465.673 452.723 465.523C452.723 465.374 452.872 465.225 453.022 465.225C453.321 465.225 458.699 464.029 460.641 465.225C461.089 465.523 461.239 465.822 461.388 466.27C461.537 466.719 461.388 467.316 460.94 467.615C460.193 468.213 458.4 467.914 456.757 467.466C455.412 467.017 454.068 466.569 452.872 465.822ZM453.918 465.822C456.308 466.868 459.595 467.914 460.492 467.167C460.641 467.017 460.79 466.868 460.641 466.42C460.641 466.121 460.342 465.972 460.193 465.822C460.043 465.673 459.894 465.673 459.595 465.523C457.802 465.225 455.86 465.374 453.918 465.822Z" fill="url(#paint60_linear_293_2156)" fill-opacity="0.2"/>
<path d="M452.723 465.821C452.573 465.672 452.573 465.672 452.723 465.523C452.723 465.373 454.217 461.937 456.308 461.041C456.906 460.742 457.653 460.742 458.251 461.041C459.147 461.339 459.147 461.937 459.147 462.236C458.998 463.73 454.964 465.672 453.171 465.821H453.022C452.872 465.821 452.723 465.821 452.723 465.821ZM457.802 461.489C457.354 461.339 457.055 461.339 456.607 461.489C455.263 462.385 454.217 463.58 453.619 464.925C455.561 464.477 458.251 462.833 458.549 461.937C458.549 461.787 458.549 461.638 458.101 461.339L457.802 461.489Z" fill="#F84B00"/>
<path d="M452.723 465.821C452.573 465.672 452.573 465.672 452.723 465.523C452.723 465.373 454.217 461.937 456.308 461.041C456.906 460.742 457.653 460.742 458.251 461.041C459.147 461.339 459.147 461.937 459.147 462.236C458.998 463.73 454.964 465.672 453.171 465.821H453.022C452.872 465.821 452.723 465.821 452.723 465.821ZM457.802 461.489C457.354 461.339 457.055 461.339 456.607 461.489C455.263 462.385 454.217 463.58 453.619 464.925C455.561 464.477 458.251 462.833 458.549 461.937C458.549 461.787 458.549 461.638 458.101 461.339L457.802 461.489Z" fill="url(#paint61_linear_293_2156)" fill-opacity="0.2"/>
<path d="M452.125 463.581L437.783 459.099C437.185 458.949 436.588 459.099 436.438 459.696L430.313 470.603C429.715 471.499 430.014 472.844 431.06 473.292C431.209 473.292 431.359 473.442 431.508 473.442C436.737 474.936 441.368 476.131 447.793 478.073C455.412 480.464 453.171 480.762 461.986 483.601C467.364 485.394 470.203 479.567 467.962 478.521C457.952 474.039 457.802 470.454 454.964 465.523C454.217 464.627 453.171 463.88 452.125 463.581Z" fill="#03004F"/>
<path opacity="0.6" d="M441.219 450.283L453.171 456.26L457.653 446.1L444.805 439.676L441.219 450.283Z" fill="#FF9070"/>
<path d="M495.302 235.74C495.302 235.74 479.167 247.991 482.752 286.388C483.051 289.974 484.246 293.709 484.246 297.743C484.246 300.432 483.499 302.374 482.603 308.35C481.258 317.165 479.017 350.183 476.477 354.516C474.087 358.699 472.892 358.102 466.019 369.905C458.549 382.604 448.838 405.014 441.368 442.813C441.368 442.813 447.942 447.893 458.101 449.835C458.101 449.835 499.186 385.144 507.851 361.09C515.62 339.576 525.032 270.701 525.032 270.701L525.779 240.82L495.302 235.74Z" fill="url(#paint62_linear_293_2156)"/>
<path d="M495.302 235.74C495.302 235.74 479.167 247.991 482.752 286.388C483.051 289.974 484.246 293.709 484.246 297.743C484.246 300.432 483.499 302.374 482.603 308.35C481.258 317.165 479.017 350.183 476.477 354.516C474.087 358.699 472.892 358.102 466.019 369.905C458.549 382.604 448.838 405.014 441.368 442.813C441.368 442.813 447.942 447.893 458.101 449.835C458.101 449.835 499.186 385.144 507.851 361.09C515.62 339.576 525.032 270.701 525.032 270.701L525.779 240.82L495.302 235.74Z" fill="url(#paint63_linear_293_2156)"/>
<path d="M495.302 235.74C495.302 235.74 479.167 247.991 482.752 286.388C483.051 289.974 484.246 293.709 484.246 297.743C484.246 300.432 483.499 302.374 482.603 308.35C481.258 317.165 479.017 350.183 476.477 354.516C474.087 358.699 472.892 358.102 466.019 369.905C458.549 382.604 448.838 405.014 441.368 442.813C441.368 442.813 447.942 447.893 458.101 449.835C458.101 449.835 499.186 385.144 507.851 361.09C515.62 339.576 525.032 270.701 525.032 270.701L525.779 240.82L495.302 235.74Z" fill="url(#paint64_linear_293_2156)"/>
<path opacity="0.2" d="M512.931 286.387H501.278C501.278 286.387 497.393 322.991 510.092 353.469C511.437 348.539 512.782 342.712 513.977 336.287L519.056 304.016C518.309 298.638 517.712 294.455 517.712 294.156C517.413 293.409 512.931 286.387 512.931 286.387Z" fill="#03004F"/>
<path d="M510.989 448.641L511.138 471.948L524.285 471.201L526.377 448.641H510.989Z" fill="url(#paint65_linear_293_2156)"/>
<path d="M525.779 470.752C525.63 470.752 525.481 470.602 525.481 470.453C525.481 470.304 525.481 470.154 525.63 470.154C525.779 470.005 530.56 467.166 532.801 467.614C533.249 467.764 533.548 467.913 533.847 468.361C534.146 468.81 534.146 469.407 533.996 469.706C533.399 470.453 531.755 470.901 529.963 470.901C528.618 471.051 527.273 470.901 525.779 470.752ZM526.825 470.304C529.365 470.602 532.801 470.453 533.399 469.407C533.548 469.258 533.548 469.108 533.249 468.66C533.1 468.361 532.801 468.212 532.652 468.212C532.502 468.212 532.204 468.212 532.054 468.212C530.261 468.511 528.469 469.258 526.825 470.304Z" fill="#F84B00"/>
<path d="M525.779 470.752C525.63 470.752 525.481 470.602 525.481 470.453C525.481 470.304 525.481 470.154 525.63 470.154C525.779 470.005 530.56 467.166 532.801 467.614C533.249 467.764 533.548 467.913 533.847 468.361C534.146 468.81 534.146 469.407 533.996 469.706C533.399 470.453 531.755 470.901 529.963 470.901C528.618 471.051 527.273 470.901 525.779 470.752ZM526.825 470.304C529.365 470.602 532.801 470.453 533.399 469.407C533.548 469.258 533.548 469.108 533.249 468.66C533.1 468.361 532.801 468.212 532.652 468.212C532.502 468.212 532.204 468.212 532.054 468.212C530.261 468.511 528.469 469.258 526.825 470.304Z" fill="url(#paint66_linear_293_2156)" fill-opacity="0.2"/>
<path d="M525.63 470.752C525.481 470.752 525.481 470.602 525.481 470.453C525.481 470.303 525.779 466.568 527.423 465.074C527.871 464.626 528.618 464.477 529.216 464.477C530.112 464.477 530.411 464.925 530.411 465.373C530.71 466.867 527.572 470.005 525.929 470.752H525.779C525.779 470.752 525.779 470.752 525.63 470.752ZM529.066 465.074C528.618 465.074 528.319 465.224 528.02 465.522C526.975 466.718 526.526 468.212 526.377 469.855C528.02 468.809 530.112 466.419 529.963 465.522C529.963 465.373 529.963 465.224 529.365 465.224L529.066 465.074Z" fill="#F84B00"/>
<path d="M525.63 470.752C525.481 470.752 525.481 470.602 525.481 470.453C525.481 470.303 525.779 466.568 527.423 465.074C527.871 464.626 528.618 464.477 529.216 464.477C530.112 464.477 530.411 464.925 530.411 465.373C530.71 466.867 527.572 470.005 525.929 470.752H525.779C525.779 470.752 525.779 470.752 525.63 470.752ZM529.066 465.074C528.618 465.074 528.319 465.224 528.02 465.522C526.975 466.718 526.526 468.212 526.377 469.855C528.02 468.809 530.112 466.419 529.963 465.522C529.963 465.373 529.963 465.224 529.365 465.224L529.066 465.074Z" fill="url(#paint67_linear_293_2156)" fill-opacity="0.2"/>
<path d="M524.285 468.809L509.345 469.406C508.748 469.406 508.3 469.854 508.15 470.452L505.909 482.703C505.76 483.749 506.357 484.795 507.553 485.094C507.702 485.094 507.851 485.094 508.001 485.094C513.379 484.795 518.16 484.347 524.883 484.048C532.801 483.749 530.859 484.795 540.122 484.645C545.799 484.496 546.546 478.072 544.156 477.922C533.249 476.876 531.905 473.739 527.572 470.004C526.676 469.107 525.481 468.809 524.285 468.809Z" fill="#03004F"/>
<path opacity="0.6" d="M510.989 460.742L525.182 460.444L526.377 448.641H510.989V460.742Z" fill="#FF9070"/>
<path d="M520.401 140.121C520.998 147.143 519.504 159.842 514.126 164.026C522.791 167.163 531.905 172.542 537.881 179.564C543.707 171.048 537.134 166.267 537.134 166.267C529.664 163.577 530.411 157.9 532.353 152.671L520.401 140.121Z" fill="url(#paint68_linear_293_2156)"/>
<path d="M504.266 231.406C504.266 231.406 488.28 252.622 500.083 294.156L513.529 354.814C513.529 354.814 500.83 382.453 507.553 455.213C507.553 455.213 517.712 456.856 527.273 454.764C527.273 454.764 542.213 377.971 544.454 351.975C546.994 323.439 545.5 237.233 545.5 237.233L504.266 231.406Z" fill="url(#paint69_linear_293_2156)"/>
<path d="M504.266 231.406C504.266 231.406 488.28 252.622 500.083 294.156L513.529 354.814C513.529 354.814 500.83 382.453 507.553 455.213C507.553 455.213 517.712 456.856 527.273 454.764C527.273 454.764 542.213 377.971 544.454 351.975C546.994 323.439 545.5 237.233 545.5 237.233L504.266 231.406Z" fill="url(#paint70_linear_293_2156)"/>
<path d="M504.266 231.406C504.266 231.406 488.28 252.622 500.083 294.156L513.529 354.814C513.529 354.814 500.83 382.453 507.553 455.213C507.553 455.213 517.712 456.856 527.273 454.764C527.273 454.764 542.213 377.971 544.454 351.975C546.994 323.439 545.5 237.233 545.5 237.233L504.266 231.406Z" fill="url(#paint71_linear_293_2156)"/>
<path d="M513.977 162.682C513.977 162.682 511.437 152.074 527.423 156.706C543.409 161.337 542.064 170.451 542.064 170.451L513.977 162.682Z" fill="#F84B00"/>
<path d="M513.977 162.682C513.977 162.682 511.437 152.074 527.423 156.706C543.409 161.337 542.064 170.451 542.064 170.451L513.977 162.682Z" fill="url(#paint72_linear_293_2156)" fill-opacity="0.2"/>
<path d="M553.418 189.126C553.418 192.861 551.775 198.24 550.43 204.216C549.683 207.054 549.086 210.042 548.637 213.031C546.396 229.465 545.649 246.796 545.649 246.796C545.649 246.796 519.654 254.116 494.405 236.636C494.405 236.636 500.68 231.258 499.335 194.654C498.738 178.07 492.762 158.498 520.102 161.486C543.259 164.176 551.028 171.198 552.821 182.552C552.821 182.702 552.821 182.851 552.97 183C552.97 183.299 553.119 183.747 553.119 184.046C553.418 185.69 553.418 187.333 553.418 189.126Z" fill="#F84B00"/>
<path d="M553.418 189.126C553.418 192.861 551.775 198.24 550.43 204.216C549.683 207.054 549.086 210.042 548.637 213.031C546.396 229.465 545.649 246.796 545.649 246.796C545.649 246.796 519.654 254.116 494.405 236.636C494.405 236.636 500.68 231.258 499.335 194.654C498.738 178.07 492.762 158.498 520.102 161.486C543.259 164.176 551.028 171.198 552.821 182.552C552.821 182.702 552.821 182.851 552.97 183C552.97 183.299 553.119 183.747 553.119 184.046C553.418 185.69 553.418 187.333 553.418 189.126Z" fill="url(#paint73_linear_293_2156)" fill-opacity="0.2"/>
<path opacity="0.5" d="M553.418 189.126C553.418 192.861 551.775 198.24 550.43 204.216C544.156 196.746 537.881 182.702 537.881 182.702L543.11 175.082L552.223 179.265C552.522 180.311 552.821 181.357 552.97 182.403C552.97 182.552 552.97 182.702 553.12 182.851C553.12 183.15 553.269 183.598 553.269 183.897C553.418 185.69 553.418 187.333 553.418 189.126Z" fill="#F80F00"/>
<path d="M562.831 182.701C562.831 182.701 571.645 191.516 575.38 195.101L606.306 185.838C606.754 182.551 609.145 179.862 612.282 178.966L614.523 178.368L619.155 177.024C620.947 176.575 622.74 177.024 624.085 178.368C625.579 179.862 626.027 182.253 625.131 184.195C623.188 188.229 619.453 190.918 614.971 191.516L610.639 191.964C610.639 191.964 583 207.054 574.036 206.157C565.072 205.261 553.419 194.653 553.419 194.653L562.831 182.701Z" fill="url(#paint74_linear_293_2156)"/>
<path d="M540.719 166.565C548.339 167.611 556.108 173.736 568.358 184.493C568.358 184.493 564.325 193.607 555.51 199.284C555.51 199.284 548.488 196.147 539.972 185.539C529.813 172.541 536.088 165.967 540.719 166.565Z" fill="#F84B00"/>
<path d="M540.719 166.565C548.339 167.611 556.108 173.736 568.358 184.493C568.358 184.493 564.325 193.607 555.51 199.284C555.51 199.284 548.488 196.147 539.972 185.539C529.813 172.541 536.088 165.967 540.719 166.565Z" fill="url(#paint75_linear_293_2156)" fill-opacity="0.2"/>
<path fill-rule="evenodd" clip-rule="evenodd" d="M515.17 104.902C512.519 102.63 509.434 101.022 506.151 100.594C505.526 100.518 499.114 99.7747 494.712 104.227C491.19 107.782 491.436 112.175 491.713 117.121C491.96 121.513 492.23 126.342 489.909 131.41C485.742 140.521 476.097 144.005 469.574 146.339C461.865 149.123 456.009 149.009 451.394 148.919C446.609 148.825 443.16 148.758 440.363 151.974C436.991 155.872 437.576 161.127 438.152 166.309C438.747 171.656 439.333 176.924 435.554 180.541C432.973 183.014 430.194 182.96 426.955 182.898C423.953 182.84 420.556 182.774 416.556 184.704C406.779 189.423 401.903 201.995 401.953 212.558C402.019 231.878 418.583 247.79 433.048 254.106C444.935 259.273 463.401 261.432 470.367 252.374C472.941 249.016 473.308 244.955 473.648 241.194C474.033 236.922 474.384 233.036 477.898 231.009C480.355 229.597 482.547 230.129 485.055 230.739C487.35 231.296 489.909 231.918 493.176 231.172C504.396 228.577 508.7 213.318 509.865 209.155C511.699 202.671 511.298 198.934 510.736 193.715C510.27 189.38 509.694 184.023 510.198 175.222C510.205 175.096 510.213 174.969 510.221 174.842C510.681 167.424 511.33 156.936 515.249 144.915C516.661 146.353 518.272 147.75 520.102 149.086C522.774 146.548 528.194 148.549 529.417 149.001C529.562 149.054 529.648 149.086 529.664 149.086L543.857 138.179C549.385 135.789 543.857 126.825 543.857 126.825C558.918 125.872 565.5 100.5 543.857 108.499C527.724 102.726 519.733 102.259 515.17 104.902Z" fill="url(#paint76_linear_293_2156)"/>
<path d="M538.18 138.178C539.375 140.718 539.823 141.913 541.616 142.66C543.11 143.557 545.052 142.959 545.948 141.465C546.397 140.718 546.397 139.971 546.247 139.075C545.799 136.535 543.857 132.65 541.018 132.65C538.478 132.65 536.835 135.638 538.18 138.178Z" fill="url(#paint77_linear_293_2156)"/>
</g>
<defs>
<filter id="filter0_f_293_2156" x="595.023" y="23.6641" width="252.203" height="414.762" filterUnits="userSpaceOnUse" color-interpolation-filters="sRGB">
<feFlood flood-opacity="0" result="BackgroundImageFix"/>
<feBlend mode="normal" in="SourceGraphic" in2="BackgroundImageFix" result="shape"/>
<feGaussianBlur stdDeviation="10.5" result="effect1_foregroundBlur_293_2156"/>
</filter>
<linearGradient id="paint0_linear_293_2156" x1="465.266" y1="293.171" x2="230.42" y2="58.3262" gradientUnits="userSpaceOnUse">
<stop stop-color="#D5DCF8"/>
<stop offset="1" stop-color="#F1F5FF"/>
</linearGradient>
<linearGradient id="paint1_linear_293_2156" x1="1511.57" y1="482.003" x2="703.073" y2="-130.996" gradientUnits="userSpaceOnUse">
<stop stop-color="#C3D2FF"/>
<stop offset="1" stop-color="#F1F5FF"/>
</linearGradient>
<linearGradient id="paint2_linear_293_2156" x1="188.819" y1="457.043" x2="51" y2="319.225" gradientUnits="userSpaceOnUse">
<stop stop-color="#D5DCF8"/>
<stop offset="1" stop-color="#F1F5FF"/>
</linearGradient>
<linearGradient id="paint3_linear_293_2156" x1="518.247" y1="487.299" x2="414.284" y2="383.336" gradientUnits="userSpaceOnUse">
<stop stop-color="#D5DCF8"/>
<stop offset="1" stop-color="#F1F5FF"/>
</linearGradient>
<linearGradient id="paint4_linear_293_2156" x1="803.705" y1="117.885" x2="581.751" y2="236.788" gradientUnits="userSpaceOnUse">
<stop stop-color="#6136C4"/>
<stop offset="1" stop-color="#7B55D0"/>
</linearGradient>
<linearGradient id="paint5_linear_293_2156" x1="790.682" y1="74.7112" x2="526.596" y2="249.662" gradientUnits="userSpaceOnUse">
<stop stop-color="#845CD3"/>
<stop offset="1" stop-color="#B46FD3"/>
</linearGradient>
<linearGradient id="paint6_linear_293_2156" x1="634.475" y1="381.284" x2="781.053" y2="381.284" gradientUnits="userSpaceOnUse">
<stop stop-color="#FF8D02"/>
<stop offset="1" stop-color="#FFC757"/>
</linearGradient>
<linearGradient id="paint7_linear_293_2156" x1="394.884" y1="120" x2="394.884" y2="163.77" gradientUnits="userSpaceOnUse">
<stop stop-color="white"/>
<stop offset="1" stop-color="white" stop-opacity="0"/>
</linearGradient>
<linearGradient id="paint8_linear_293_2156" x1="394.699" y1="135.879" x2="394.699" y2="142.851" gradientUnits="userSpaceOnUse">
<stop stop-color="white"/>
<stop offset="1" stop-color="white" stop-opacity="0"/>
</linearGradient>
<linearGradient id="paint9_linear_293_2156" x1="956.593" y1="50.0254" x2="956.593" y2="66.5491" gradientUnits="userSpaceOnUse">
<stop stop-color="white"/>
<stop offset="1" stop-color="white" stop-opacity="0"/>
</linearGradient>
<linearGradient id="paint10_linear_293_2156" x1="954.479" y1="36" x2="954.479" y2="80.96" gradientUnits="userSpaceOnUse">
<stop stop-color="white"/>
<stop offset="1" stop-color="white" stop-opacity="0"/>
</linearGradient>
<linearGradient id="paint11_linear_293_2156" x1="811" y1="124.72" x2="865.179" y2="124.72" gradientUnits="userSpaceOnUse">
<stop stop-color="#2B84C9"/>
<stop offset="1" stop-color="#30A8E0"/>
</linearGradient>
<linearGradient id="paint12_linear_293_2156" x1="838.09" y1="82" x2="838.09" y2="124.72" gradientUnits="userSpaceOnUse">
<stop stop-color="#33BFEA"/>
<stop offset="1" stop-color="#33BFEA" stop-opacity="0"/>
</linearGradient>
<linearGradient id="paint13_linear_293_2156" x1="811" y1="82" x2="839.734" y2="137.818" gradientUnits="userSpaceOnUse">
<stop offset="0.527157" stop-color="#3CC7E9" stop-opacity="0"/>
<stop offset="1" stop-color="#46CDEC"/>
</linearGradient>
<linearGradient id="paint14_linear_293_2156" x1="664.011" y1="45.4228" x2="705.331" y2="45.4228" gradientUnits="userSpaceOnUse">
<stop stop-color="#FF8D02"/>
<stop offset="1" stop-color="#FFC757"/>
</linearGradient>
<linearGradient id="paint15_linear_293_2156" x1="745.449" y1="436.869" x2="786.487" y2="436.869" gradientUnits="userSpaceOnUse">
<stop stop-color="#2B84C9"/>
<stop offset="1" stop-color="#30A8E0"/>
</linearGradient>
<linearGradient id="paint16_linear_293_2156" x1="765.968" y1="385.709" x2="765.968" y2="436.869" gradientUnits="userSpaceOnUse">
<stop stop-color="#33BFEA"/>
<stop offset="1" stop-color="#33BFEA" stop-opacity="0"/>
</linearGradient>
<linearGradient id="paint17_linear_293_2156" x1="745.449" y1="385.709" x2="786.848" y2="436.575" gradientUnits="userSpaceOnUse">
<stop offset="0.527157" stop-color="#3CC7E9" stop-opacity="0"/>
<stop offset="1" stop-color="#46CDEC"/>
</linearGradient>
<linearGradient id="paint18_linear_293_2156" x1="1012.31" y1="289.422" x2="1016.77" y2="250.047" gradientUnits="userSpaceOnUse">
<stop stop-color="#FFB58E"/>
<stop offset="0.3282" stop-color="#FEB38B"/>
<stop offset="0.516795" stop-color="#FCAD81"/>
<stop offset="0.733239" stop-color="#F9A370"/>
<stop offset="1" stop-color="#F5985F"/>
</linearGradient>
<linearGradient id="paint19_linear_293_2156" x1="981.502" y1="288.043" x2="981.502" y2="295.961" gradientUnits="userSpaceOnUse">
<stop stop-color="white"/>
<stop offset="1" stop-color="white" stop-opacity="0"/>
</linearGradient>
<linearGradient id="paint20_linear_293_2156" x1="1028.71" y1="228.698" x2="1033.87" y2="208.015" gradientUnits="userSpaceOnUse">
<stop stop-color="#FFB58E"/>
<stop offset="0.3282" stop-color="#FEB38B"/>
<stop offset="0.516795" stop-color="#FCAD81"/>
<stop offset="0.733239" stop-color="#F9A370"/>
<stop offset="1" stop-color="#F5985F"/>
</linearGradient>
<linearGradient id="paint21_linear_293_2156" x1="1021.29" y1="213.641" x2="1021.29" y2="223.352" gradientUnits="userSpaceOnUse">
<stop stop-color="white"/>
<stop offset="1" stop-color="white" stop-opacity="0"/>
</linearGradient>
<linearGradient id="paint22_linear_293_2156" x1="1020.6" y1="209.727" x2="1032.3" y2="166.894" gradientUnits="userSpaceOnUse">
<stop stop-color="#FFB58E"/>
<stop offset="0.3282" stop-color="#FEB38B"/>
<stop offset="0.516795" stop-color="#FCAD81"/>
<stop offset="0.733239" stop-color="#F9A370"/>
<stop offset="1" stop-color="#F5985F"/>
</linearGradient>
<linearGradient id="paint23_linear_293_2156" x1="1017.64" y1="160.857" x2="1017.64" y2="213.192" gradientUnits="userSpaceOnUse">
<stop stop-color="white"/>
<stop offset="1" stop-color="white" stop-opacity="0"/>
</linearGradient>
<linearGradient id="paint24_linear_293_2156" x1="1013.07" y1="201.157" x2="1015.68" y2="190.278" gradientUnits="userSpaceOnUse">
<stop stop-color="#FFB58E"/>
<stop offset="0.3282" stop-color="#FEB38B"/>
<stop offset="0.516795" stop-color="#FCAD81"/>
<stop offset="0.733239" stop-color="#F9A370"/>
<stop offset="1" stop-color="#F5985F"/>
</linearGradient>
<linearGradient id="paint25_linear_293_2156" x1="880.534" y1="208.533" x2="836.776" y2="225.058" gradientUnits="userSpaceOnUse">
<stop offset="0.0278571" stop-color="#03004F"/>
<stop offset="1" stop-color="#6136C4"/>
</linearGradient>
<linearGradient id="paint26_linear_293_2156" x1="872.731" y1="244.374" x2="953.743" y2="244.374" gradientUnits="userSpaceOnUse">
<stop stop-color="#FF8D02"/>
<stop offset="1" stop-color="#FFC757"/>
</linearGradient>
<linearGradient id="paint27_linear_293_2156" x1="919.42" y1="297.754" x2="918.452" y2="313.434" gradientUnits="userSpaceOnUse">
<stop offset="0.0278571" stop-color="#03004F"/>
<stop offset="1" stop-color="#6136C4"/>
</linearGradient>
<linearGradient id="paint28_linear_293_2156" x1="995.757" y1="297.754" x2="994.624" y2="313.412" gradientUnits="userSpaceOnUse">
<stop offset="0.0278571" stop-color="#03004F"/>
<stop offset="1" stop-color="#6136C4"/>
</linearGradient>
<linearGradient id="paint29_linear_293_2156" x1="978.276" y1="454.414" x2="994.414" y2="417.533" gradientUnits="userSpaceOnUse">
<stop stop-color="#FFB58E"/>
<stop offset="0.3282" stop-color="#FEB38B"/>
<stop offset="0.516795" stop-color="#FCAD81"/>
<stop offset="0.733239" stop-color="#F9A370"/>
<stop offset="1" stop-color="#F5985F"/>
</linearGradient>
<linearGradient id="paint30_linear_293_2156" x1="975.15" y1="459.082" x2="975.15" y2="473.304" gradientUnits="userSpaceOnUse">
<stop stop-color="white"/>
<stop offset="1" stop-color="white" stop-opacity="0"/>
</linearGradient>
<linearGradient id="paint31_linear_293_2156" x1="976.616" y1="418.322" x2="976.616" y2="450.593" gradientUnits="userSpaceOnUse">
<stop stop-color="white"/>
<stop offset="1" stop-color="white" stop-opacity="0"/>
</linearGradient>
<linearGradient id="paint32_linear_293_2156" x1="1036.72" y1="310.268" x2="908.016" y2="453.799" gradientUnits="userSpaceOnUse">
<stop offset="0.0278571" stop-color="#03004F"/>
<stop offset="1" stop-color="#6136C4"/>
</linearGradient>
<linearGradient id="paint33_linear_293_2156" x1="937.691" y1="454.777" x2="955.043" y2="422.178" gradientUnits="userSpaceOnUse">
<stop stop-color="#FFB58E"/>
<stop offset="0.3282" stop-color="#FEB38B"/>
<stop offset="0.516795" stop-color="#FCAD81"/>
<stop offset="0.733239" stop-color="#F9A370"/>
<stop offset="1" stop-color="#F5985F"/>
</linearGradient>
<linearGradient id="paint34_linear_293_2156" x1="932.272" y1="459.082" x2="932.272" y2="473.304" gradientUnits="userSpaceOnUse">
<stop stop-color="white"/>
<stop offset="1" stop-color="white" stop-opacity="0"/>
</linearGradient>
<linearGradient id="paint35_linear_293_2156" x1="936.651" y1="420.266" x2="936.651" y2="450.557" gradientUnits="userSpaceOnUse">
<stop stop-color="white"/>
<stop offset="1" stop-color="white" stop-opacity="0"/>
</linearGradient>
<linearGradient id="paint36_linear_293_2156" x1="1013.39" y1="310.268" x2="887.657" y2="470.606" gradientUnits="userSpaceOnUse">
<stop offset="0.0278571" stop-color="#03004F"/>
<stop offset="1" stop-color="#6136C4"/>
</linearGradient>
<linearGradient id="paint37_linear_293_2156" x1="1015.03" y1="230.223" x2="1042.58" y2="230.223" gradientUnits="userSpaceOnUse">
<stop stop-color="#2B84C9"/>
<stop offset="1" stop-color="#30A8E0"/>
</linearGradient>
<linearGradient id="paint38_linear_293_2156" x1="1028.8" y1="222.229" x2="1028.8" y2="230.223" gradientUnits="userSpaceOnUse">
<stop stop-color="#33BFEA"/>
<stop offset="1" stop-color="#33BFEA" stop-opacity="0"/>
</linearGradient>
<linearGradient id="paint39_linear_293_2156" x1="1015.03" y1="222.229" x2="1017.45" y2="234.984" gradientUnits="userSpaceOnUse">
<stop offset="0.527157" stop-color="#3CC7E9" stop-opacity="0"/>
<stop offset="1" stop-color="#46CDEC"/>
</linearGradient>
<linearGradient id="paint40_linear_293_2156" x1="996.86" y1="320.089" x2="1057.21" y2="320.089" gradientUnits="userSpaceOnUse">
<stop stop-color="#2B84C9"/>
<stop offset="1" stop-color="#30A8E0"/>
</linearGradient>
<linearGradient id="paint41_linear_293_2156" x1="1027.04" y1="226.174" x2="1027.04" y2="320.089" gradientUnits="userSpaceOnUse">
<stop stop-color="#33BFEA"/>
<stop offset="1" stop-color="#33BFEA" stop-opacity="0"/>
</linearGradient>
<linearGradient id="paint42_linear_293_2156" x1="996.86" y1="226.174" x2="1074.46" y2="302.564" gradientUnits="userSpaceOnUse">
<stop offset="0.527157" stop-color="#3CC7E9" stop-opacity="0"/>
<stop offset="1" stop-color="#46CDEC"/>
</linearGradient>
<linearGradient id="paint43_linear_293_2156" x1="969.584" y1="289.422" x2="974.037" y2="250.047" gradientUnits="userSpaceOnUse">
<stop stop-color="#FFB58E"/>
<stop offset="0.3282" stop-color="#FEB38B"/>
<stop offset="0.516795" stop-color="#FCAD81"/>
<stop offset="0.733239" stop-color="#F9A370"/>
<stop offset="1" stop-color="#F5985F"/>
</linearGradient>
<linearGradient id="paint44_linear_293_2156" x1="983.115" y1="267.724" x2="1013.29" y2="267.724" gradientUnits="userSpaceOnUse">
<stop stop-color="#2B84C9"/>
<stop offset="1" stop-color="#30A8E0"/>
</linearGradient>
<linearGradient id="paint45_linear_293_2156" x1="998.2" y1="230.215" x2="998.2" y2="267.724" gradientUnits="userSpaceOnUse">
<stop stop-color="#33BFEA"/>
<stop offset="1" stop-color="#33BFEA" stop-opacity="0"/>
</linearGradient>
<linearGradient id="paint46_linear_293_2156" x1="983.115" y1="230.215" x2="1013.45" y2="267.59" gradientUnits="userSpaceOnUse">
<stop offset="0.527157" stop-color="#3CC7E9" stop-opacity="0"/>
<stop offset="1" stop-color="#46CDEC"/>
</linearGradient>
<linearGradient id="paint47_linear_293_2156" x1="1067.12" y1="296.798" x2="1007.03" y2="388.762" gradientUnits="userSpaceOnUse">
<stop stop-color="#6136C4"/>
<stop offset="1" stop-color="#7B55D0"/>
</linearGradient>
<linearGradient id="paint48_linear_293_2156" x1="998.797" y1="317.494" x2="991.433" y2="329.394" gradientUnits="userSpaceOnUse">
<stop stop-color="#6136C4"/>
<stop offset="1" stop-color="#7B55D0"/>
</linearGradient>
<linearGradient id="paint49_linear_293_2156" x1="998.797" y1="317.494" x2="991.433" y2="329.394" gradientUnits="userSpaceOnUse">
<stop stop-color="#6136C4"/>
<stop offset="1" stop-color="#7B55D0"/>
</linearGradient>
<linearGradient id="paint50_linear_293_2156" x1="985.037" y1="316.162" x2="982.192" y2="333.394" gradientUnits="userSpaceOnUse">
<stop stop-color="#845CD3"/>
<stop offset="1" stop-color="#B46FD3"/>
</linearGradient>
<linearGradient id="paint51_linear_293_2156" x1="536.385" y1="148.643" x2="547.686" y2="109.301" gradientUnits="userSpaceOnUse">
<stop stop-color="#FFB58E"/>
<stop offset="0.3282" stop-color="#FEB38B"/>
<stop offset="0.516795" stop-color="#FCAD81"/>
<stop offset="0.733239" stop-color="#F9A370"/>
<stop offset="1" stop-color="#F5985F"/>
</linearGradient>
<linearGradient id="paint52_linear_293_2156" x1="561.62" y1="191.013" x2="565.426" y2="155.276" gradientUnits="userSpaceOnUse">
<stop stop-color="#FFB58E"/>
<stop offset="0.3282" stop-color="#FEB38B"/>
<stop offset="0.516795" stop-color="#FCAD81"/>
<stop offset="0.733239" stop-color="#F9A370"/>
<stop offset="1" stop-color="#F5985F"/>
</linearGradient>
<linearGradient id="paint53_linear_293_2156" x1="578.2" y1="177.404" x2="660.557" y2="177.404" gradientUnits="userSpaceOnUse">
<stop stop-color="#2B84C9"/>
<stop offset="1" stop-color="#30A8E0"/>
</linearGradient>
<linearGradient id="paint54_linear_293_2156" x1="619.379" y1="110.77" x2="619.379" y2="177.404" gradientUnits="userSpaceOnUse">
<stop stop-color="#33BFEA"/>
<stop offset="1" stop-color="#33BFEA" stop-opacity="0"/>
</linearGradient>
<linearGradient id="paint55_linear_293_2156" x1="578.2" y1="110.77" x2="623.685" y2="196.88" gradientUnits="userSpaceOnUse">
<stop offset="0.527157" stop-color="#3CC7E9" stop-opacity="0"/>
<stop offset="1" stop-color="#46CDEC"/>
</linearGradient>
<linearGradient id="paint56_linear_293_2156" x1="608.946" y1="144.983" x2="587.43" y2="175.256" gradientUnits="userSpaceOnUse">
<stop stop-color="#FF9070"/>
<stop offset="1" stop-color="#F0B3A1"/>
</linearGradient>
<linearGradient id="paint57_linear_293_2156" x1="633.178" y1="169.952" x2="640.439" y2="128.64" gradientUnits="userSpaceOnUse">
<stop stop-color="#FFB58E"/>
<stop offset="0.3282" stop-color="#FEB38B"/>
<stop offset="0.516795" stop-color="#FCAD81"/>
<stop offset="0.733239" stop-color="#F9A370"/>
<stop offset="1" stop-color="#F5985F"/>
</linearGradient>
<linearGradient id="paint58_linear_293_2156" x1="614.056" y1="128.406" x2="627.554" y2="128.406" gradientUnits="userSpaceOnUse">
<stop stop-color="#FF8D02"/>
<stop offset="1" stop-color="#FFC757"/>
</linearGradient>
<linearGradient id="paint59_linear_293_2156" x1="448.615" y1="461.8" x2="455.441" y2="436.721" gradientUnits="userSpaceOnUse">
<stop stop-color="#FFB58E"/>
<stop offset="0.3282" stop-color="#FEB38B"/>
<stop offset="0.516795" stop-color="#FCAD81"/>
<stop offset="0.733239" stop-color="#F9A370"/>
<stop offset="1" stop-color="#F5985F"/>
</linearGradient>
<linearGradient id="paint60_linear_293_2156" x1="457.083" y1="464.693" x2="457.083" y2="467.95" gradientUnits="userSpaceOnUse">
<stop stop-color="white"/>
<stop offset="1" stop-color="white" stop-opacity="0"/>
</linearGradient>
<linearGradient id="paint61_linear_293_2156" x1="455.879" y1="460.816" x2="455.879" y2="465.821" gradientUnits="userSpaceOnUse">
<stop stop-color="white"/>
<stop offset="1" stop-color="white" stop-opacity="0"/>
</linearGradient>
<linearGradient id="paint62_linear_293_2156" x1="441.368" y1="449.835" x2="525.779" y2="449.835" gradientUnits="userSpaceOnUse">
<stop stop-color="#2B84C9"/>
<stop offset="1" stop-color="#30A8E0"/>
</linearGradient>
<linearGradient id="paint63_linear_293_2156" x1="483.574" y1="235.74" x2="483.574" y2="449.835" gradientUnits="userSpaceOnUse">
<stop stop-color="#33BFEA"/>
<stop offset="1" stop-color="#33BFEA" stop-opacity="0"/>
</linearGradient>
<linearGradient id="paint64_linear_293_2156" x1="441.368" y1="235.74" x2="597.963" y2="330.308" gradientUnits="userSpaceOnUse">
<stop offset="0.527157" stop-color="#3CC7E9" stop-opacity="0"/>
<stop offset="1" stop-color="#46CDEC"/>
</linearGradient>
<linearGradient id="paint65_linear_293_2156" x1="519.532" y1="467.923" x2="526.228" y2="446.544" gradientUnits="userSpaceOnUse">
<stop stop-color="#FFB58E"/>
<stop offset="0.3282" stop-color="#FEB38B"/>
<stop offset="0.516795" stop-color="#FCAD81"/>
<stop offset="0.733239" stop-color="#F9A370"/>
<stop offset="1" stop-color="#F5985F"/>
</linearGradient>
<linearGradient id="paint66_linear_293_2156" x1="529.788" y1="467.566" x2="529.788" y2="470.963" gradientUnits="userSpaceOnUse">
<stop stop-color="white"/>
<stop offset="1" stop-color="white" stop-opacity="0"/>
</linearGradient>
<linearGradient id="paint67_linear_293_2156" x1="527.956" y1="464.477" x2="527.956" y2="470.752" gradientUnits="userSpaceOnUse">
<stop stop-color="white"/>
<stop offset="1" stop-color="white" stop-opacity="0"/>
</linearGradient>
<linearGradient id="paint68_linear_293_2156" x1="528.651" y1="172.752" x2="539.939" y2="136.542" gradientUnits="userSpaceOnUse">
<stop stop-color="#FFB58E"/>
<stop offset="0.3282" stop-color="#FEB38B"/>
<stop offset="0.516795" stop-color="#FCAD81"/>
<stop offset="0.733239" stop-color="#F9A370"/>
<stop offset="1" stop-color="#F5985F"/>
</linearGradient>
<linearGradient id="paint69_linear_293_2156" x1="495.738" y1="455.826" x2="545.937" y2="455.826" gradientUnits="userSpaceOnUse">
<stop stop-color="#2B84C9"/>
<stop offset="1" stop-color="#30A8E0"/>
</linearGradient>
<linearGradient id="paint70_linear_293_2156" x1="520.837" y1="231.406" x2="520.837" y2="455.826" gradientUnits="userSpaceOnUse">
<stop stop-color="#33BFEA"/>
<stop offset="1" stop-color="#33BFEA" stop-opacity="0"/>
</linearGradient>
<linearGradient id="paint71_linear_293_2156" x1="495.738" y1="231.406" x2="609.475" y2="270.374" gradientUnits="userSpaceOnUse">
<stop offset="0.527157" stop-color="#3CC7E9" stop-opacity="0"/>
<stop offset="1" stop-color="#46CDEC"/>
</linearGradient>
<linearGradient id="paint72_linear_293_2156" x1="527.96" y1="155.535" x2="527.96" y2="170.451" gradientUnits="userSpaceOnUse">
<stop stop-color="white"/>
<stop offset="1" stop-color="white" stop-opacity="0"/>
</linearGradient>
<linearGradient id="paint73_linear_293_2156" x1="523.912" y1="161.182" x2="523.912" y2="248.317" gradientUnits="userSpaceOnUse">
<stop stop-color="white"/>
<stop offset="1" stop-color="white" stop-opacity="0"/>
</linearGradient>
<linearGradient id="paint74_linear_293_2156" x1="593.485" y1="201.129" x2="595.952" y2="171.783" gradientUnits="userSpaceOnUse">
<stop stop-color="#FFB58E"/>
<stop offset="0.3282" stop-color="#FEB38B"/>
<stop offset="0.516795" stop-color="#FCAD81"/>
<stop offset="0.733239" stop-color="#F9A370"/>
<stop offset="1" stop-color="#F5985F"/>
</linearGradient>
<linearGradient id="paint75_linear_293_2156" x1="551.435" y1="166.527" x2="551.435" y2="199.284" gradientUnits="userSpaceOnUse">
<stop stop-color="white"/>
<stop offset="1" stop-color="white" stop-opacity="0"/>
</linearGradient>
<linearGradient id="paint76_linear_293_2156" x1="528.372" y1="91.2241" x2="371.543" y2="299.88" gradientUnits="userSpaceOnUse">
<stop offset="0.0278571" stop-color="#03004F"/>
<stop offset="1" stop-color="#6136C4"/>
</linearGradient>
<linearGradient id="paint77_linear_293_2156" x1="542.494" y1="141.28" x2="544.964" y2="131.39" gradientUnits="userSpaceOnUse">
<stop stop-color="#FFB58E"/>
<stop offset="0.3282" stop-color="#FEB38B"/>
<stop offset="0.516795" stop-color="#FCAD81"/>
<stop offset="0.733239" stop-color="#F9A370"/>
<stop offset="1" stop-color="#F5985F"/>
</linearGradient>
<clipPath id="clip0_293_2156">
<rect width="1536" height="512" fill="white"/>
</clipPath>
</defs>
</svg>
