<svg xmlns="http://www.w3.org/2000/svg" xmlns:xlink="http://www.w3.org/1999/xlink" viewBox="0 0 118.99 26.6"><defs><style>.cls-1,.cls-2{fill:none;stroke-linecap:round;stroke-linejoin:round;stroke-width:0.62px;}.cls-1{stroke:url(#Macmatec_Gradient);}.cls-2{stroke:url(#Macmatec_Gradient-2);}.cls-3{fill:url(#linear-gradient);}.cls-4{fill:url(#Macmatec_Gradient-3);}.cls-5{fill:url(#Macmatec_Gradient-4);}.cls-6{fill:url(#Macmatec_Gradient-5);}.cls-7{fill:url(#Macmatec_Gradient-6);}.cls-8{fill:url(#Macmatec_Gradient-7);}.cls-9{fill:url(#Macmatec_Gradient-8);}.cls-10{fill:url(#Macmatec_Gradient-9);}.cls-11{fill:url(#Macmatec_Gradient-10);}.cls-12{fill:url(#Macmatec_Gradient-11);}.cls-13{fill:url(#Macmatec_Gradient-12);}</style><linearGradient id="Macmatec_Gradient" x1="8.64" y1="11.57" x2="19.46" y2="11.57" gradientUnits="userSpaceOnUse"><stop offset="0.02" stop-color="#67cbe0"/><stop offset="1" stop-color="#ffdf77"/></linearGradient><linearGradient id="Macmatec_Gradient-2" x1="15.83" y1="11.57" x2="26.65" y2="11.57" xlink:href="#Macmatec_Gradient"/><linearGradient id="linear-gradient" x1="15.96" y1="21.37" x2="19.33" y2="21.37" gradientUnits="userSpaceOnUse"><stop offset="0.02" stop-color="#ffdf77"/><stop offset="1" stop-color="#00aeef"/></linearGradient><linearGradient id="Macmatec_Gradient-3" x1="29.21" y1="-0.7" x2="32.1" y2="25.3" xlink:href="#Macmatec_Gradient"/><linearGradient id="Macmatec_Gradient-4" x1="10369.54" y1="-0.7" x2="10372.43" y2="25.3" gradientTransform="matrix(-1, 0, 0, 1, 10375.62, 0)" xlink:href="#Macmatec_Gradient"/><linearGradient id="Macmatec_Gradient-5" x1="42.83" y1="11.57" x2="51.9" y2="11.57" xlink:href="#Macmatec_Gradient"/><linearGradient id="Macmatec_Gradient-6" x1="53.31" y1="11.56" x2="61.94" y2="11.56" xlink:href="#Macmatec_Gradient"/><linearGradient id="Macmatec_Gradient-7" x1="62.99" y1="11.57" x2="71.16" y2="11.57" xlink:href="#Macmatec_Gradient"/><linearGradient id="Macmatec_Gradient-8" x1="73.2" y1="11.57" x2="82.26" y2="11.57" xlink:href="#Macmatec_Gradient"/><linearGradient id="Macmatec_Gradient-9" x1="83.68" y1="11.56" x2="92.31" y2="11.56" xlink:href="#Macmatec_Gradient"/><linearGradient id="Macmatec_Gradient-10" x1="93.03" y1="11.57" x2="100.43" y2="11.57" xlink:href="#Macmatec_Gradient"/><linearGradient id="Macmatec_Gradient-11" x1="102.17" y1="11.57" x2="109.12" y2="11.57" xlink:href="#Macmatec_Gradient"/><linearGradient id="Macmatec_Gradient-12" x1="110.82" y1="11.57" x2="118.99" y2="11.57" xlink:href="#Macmatec_Gradient"/></defs><g id="Layer_2" data-name="Layer 2"><g id="Layer_1-2" data-name="Layer 1"><polyline class="cls-1" points="8.96 12.48 10.49 16.02 14.06 7.11 17.61 16.02 19.14 12.48 14.23 12.48"/><polyline class="cls-2" points="26.34 12.48 24.8 16.02 21.23 7.11 17.68 16.02 16.14 12.48 21.06 12.48"/><circle class="cls-3" cx="17.65" cy="21.37" r="1.69"/><path class="cls-4" d="M28.74,26.6a1.27,1.27,0,0,1-.86-2.21l.45-.44a15.05,15.05,0,0,0,0-21.31l-.45-.43A1.27,1.27,0,0,1,28.74,0a1.24,1.24,0,0,1,.86.34l.53.5a17.61,17.61,0,0,1,0,24.91c-.17.18-.35.35-.53.51A1.24,1.24,0,0,1,28.74,26.6Zm-.26-1.55Z"/><path class="cls-5" d="M5.69,26.26c-.18-.16-.36-.33-.53-.51A17.61,17.61,0,0,1,5.16.84l.53-.5A1.24,1.24,0,0,1,6.55,0a1.27,1.27,0,0,1,.86,2.21L7,2.64A15.05,15.05,0,0,0,7,24l.45.44a1.27,1.27,0,0,1-.86,2.21A1.24,1.24,0,0,1,5.69,26.26Zm1.12-1.21Z"/><path class="cls-6" d="M51.9,16.38h-.71V7.91l-3.46,8.47H47L43.54,7.91v8.47h-.71V6.76h1l3.51,8.74,3.53-8.74h1Z"/><path class="cls-7" d="M61.94,16.38H61.1l-1.18-3.09H55.18c-.17.48-.35,1-.55,1.54l-.57,1.55h-.75c.32-.83.63-1.65.94-2.44s.61-1.59.92-2.38.61-1.58.91-2.38L57,6.75h1Zm-2.22-3.65L57.49,7.38l-2.12,5.35Z"/><path class="cls-8" d="M70.43,9.33a2.06,2.06,0,0,0-.36-.8,2.4,2.4,0,0,0-.66-.65,3.08,3.08,0,0,0-.91-.44,4.09,4.09,0,0,0-2.62.12,3.14,3.14,0,0,0-1.16.8A3.55,3.55,0,0,0,64,9.69a5.74,5.74,0,0,0-.26,1.85A5.78,5.78,0,0,0,64,13.39a3.64,3.64,0,0,0,.73,1.35,3.1,3.1,0,0,0,1.16.83,3.73,3.73,0,0,0,1.49.28,3.48,3.48,0,0,0,2.06-.56,2.39,2.39,0,0,0,1-1.63h.73a3.2,3.2,0,0,1-1.25,2.14,3.42,3.42,0,0,1-1.13.56,4.76,4.76,0,0,1-1.39.2,4.46,4.46,0,0,1-1.83-.36,4,4,0,0,1-1.39-1,4.43,4.43,0,0,1-.87-1.57A6.49,6.49,0,0,1,63,11.54a6.28,6.28,0,0,1,.31-2.06,4.4,4.4,0,0,1,.88-1.56,3.84,3.84,0,0,1,1.39-1,4.61,4.61,0,0,1,1.82-.35,4.39,4.39,0,0,1,1.32.2,4.14,4.14,0,0,1,1.13.57,3.35,3.35,0,0,1,.85.87,3.21,3.21,0,0,1,.47,1.11Z"/><path class="cls-9" d="M82.26,16.38h-.7V7.91L78.1,16.38h-.74L73.9,7.91v8.47h-.7V6.76h1l3.51,8.74,3.53-8.74h1Z"/><path class="cls-10" d="M92.31,16.38h-.85l-1.17-3.09H85.55c-.17.48-.35,1-.55,1.54s-.39,1.06-.58,1.55h-.74c.31-.83.63-1.65.93-2.44s.62-1.59.92-2.38.61-1.58.92-2.38l.94-2.43h1Zm-2.23-3.65L87.85,7.38l-2.12,5.35Z"/><path class="cls-11" d="M100.43,7.46H97.06v8.92h-.7V7.46H93v-.7h7.4Z"/><path class="cls-12" d="M109.12,16.38h-7V6.76h6.71v.7h-6V11h5.64v.7h-5.64v4h6.25Z"/><path class="cls-13" d="M118.26,9.33a2.06,2.06,0,0,0-.36-.8,2.4,2.4,0,0,0-.66-.65,3.08,3.08,0,0,0-.91-.44,4.09,4.09,0,0,0-2.62.12,3.14,3.14,0,0,0-1.16.8,3.55,3.55,0,0,0-.73,1.33,5.74,5.74,0,0,0-.26,1.85,5.78,5.78,0,0,0,.26,1.85,3.64,3.64,0,0,0,.73,1.35,3.1,3.1,0,0,0,1.16.83,3.73,3.73,0,0,0,1.49.28,3.48,3.48,0,0,0,2.06-.56,2.39,2.39,0,0,0,1-1.63H119a3.2,3.2,0,0,1-1.25,2.14,3.42,3.42,0,0,1-1.13.56,4.76,4.76,0,0,1-1.39.2,4.46,4.46,0,0,1-1.83-.36,4,4,0,0,1-1.39-1,4.43,4.43,0,0,1-.87-1.57,6.49,6.49,0,0,1-.31-2.08,6.28,6.28,0,0,1,.31-2.06A4.4,4.4,0,0,1,112,7.92a3.84,3.84,0,0,1,1.39-1,4.61,4.61,0,0,1,1.82-.35,4.39,4.39,0,0,1,1.32.2,4.14,4.14,0,0,1,1.13.57,3.35,3.35,0,0,1,.85.87A3.21,3.21,0,0,1,119,9.33Z"/></g></g></svg>